<?xml version="1.0" encoding="UTF-8"?>
<svg xmlns="http://www.w3.org/2000/svg" xmlns:xlink="http://www.w3.org/1999/xlink" width="74.7pt" height="72.35pt" viewBox="0 0 74.7 72.35" version="1.1">
<defs>
<clipPath id="clip1">
  <path d="M 0 0 L 74.699219 0 L 74.699219 72.351563 L 0 72.351563 Z M 0 0 "/>
</clipPath>
</defs>
<g id="surface1">
<path style="fill:#81b3d2;" d="M 42.566406 62.414063 L 32.441406 62.414063 L 32.441406 44.347656 L 42.566406 44.347656 Z M 29.503906 65.347656 L 45.503906 65.347656 L 45.503906 41.410156 L 29.503906 41.410156 Z M 29.503906 65.347656 "/>
<g clip-path="url(#clip1)" clip-rule="nonzero">
<path style="fill:#81b3d2;" d="M 37.351563 0.00390625 L 0 37.367188 L 2.078125 39.445313 L 9.910156 31.613281 L 9.910156 69.414063 L 5.972656 69.414063 L 5.972656 72.351563 L 69.847656 72.351563 L 69.847656 69.414063 L 64.785156 69.414063 L 64.785156 31.609375 L 72.621094 39.445313 L 74.695313 37.363281 L 64.789063 27.453125 L 64.789063 0.472656 L 50.972656 0.472656 L 50.972656 13.632813 Z M 53.914063 16.574219 L 53.914063 3.414063 L 61.851563 3.414063 L 61.851563 24.515625 Z M 12.847656 28.675781 L 37.347656 4.171875 L 61.851563 28.675781 L 61.851563 69.410156 L 12.847656 69.410156 "/>
</g>
<path style="fill:#81b3d2;" d="M 37.503906 22.246094 C 40.246094 22.246094 42.472656 24.46875 42.472656 27.214844 C 42.472656 29.960938 40.246094 32.183594 37.503906 32.183594 C 34.757813 32.183594 32.53125 29.960938 32.53125 27.214844 C 32.53125 24.46875 34.757813 22.246094 37.503906 22.246094 M 29.753906 27.214844 C 29.753906 31.496094 33.222656 34.964844 37.503906 34.964844 C 41.78125 34.964844 45.253906 31.496094 45.253906 27.214844 C 45.253906 22.933594 41.78125 19.464844 37.503906 19.464844 C 33.222656 19.464844 29.753906 22.933594 29.753906 27.214844 "/>
<path style="fill:#81b3d2;" d="M 16.910156 45.351563 L 19.910156 45.351563 L 19.910156 41.414063 L 16.910156 41.414063 Z M 16.910156 45.351563 "/>
<path style="fill:#81b3d2;" d="M 22.847656 45.351563 L 25.847656 45.351563 L 25.847656 41.414063 L 22.847656 41.414063 Z M 22.847656 45.351563 "/>
<path style="fill:#81b3d2;" d="M 16.910156 51.351563 L 19.910156 51.351563 L 19.910156 47.414063 L 16.910156 47.414063 Z M 16.910156 51.351563 "/>
<path style="fill:#81b3d2;" d="M 22.847656 51.351563 L 25.847656 51.351563 L 25.847656 47.414063 L 22.847656 47.414063 Z M 22.847656 51.351563 "/>
<path style="fill:#81b3d2;" d="M 48.847656 45.351563 L 51.847656 45.351563 L 51.847656 41.414063 L 48.847656 41.414063 Z M 48.847656 45.351563 "/>
<path style="fill:#81b3d2;" d="M 54.785156 45.351563 L 57.785156 45.351563 L 57.785156 41.414063 L 54.785156 41.414063 Z M 54.785156 45.351563 "/>
<path style="fill:#81b3d2;" d="M 48.847656 51.351563 L 51.847656 51.351563 L 51.847656 47.414063 L 48.847656 47.414063 Z M 48.847656 51.351563 "/>
<path style="fill:#81b3d2;" d="M 54.785156 51.351563 L 57.785156 51.351563 L 57.785156 47.414063 L 54.785156 47.414063 Z M 54.785156 51.351563 "/>
</g>
</svg>
