<?xml version="1.0" encoding="UTF-8"?>
<svg xmlns="http://www.w3.org/2000/svg" xmlns:xlink="http://www.w3.org/1999/xlink" width="76.17pt" height="68.96pt" viewBox="0 0 76.17 68.96" version="1.1">
<defs>
<clipPath id="clip1">
  <path d="M 0 46 L 76.171875 46 L 76.171875 68.960938 L 0 68.960938 Z M 0 46 "/>
</clipPath>
</defs>
<g id="surface1">
<g clip-path="url(#clip1)" clip-rule="nonzero">
<path style="fill:#81b3d2;" d="M 73.164063 53.75 C 73.164063 54.429688 72.59375 55 71.914063 55 L 4.25 55 C 3.574219 55 3 54.429688 3 53.75 L 3 50.296875 C 3 49.617188 3.574219 49.042969 4.25 49.042969 L 71.914063 49.042969 C 72.59375 49.042969 73.164063 49.617188 73.164063 50.296875 Z M 67.957031 59.039063 C 67.957031 62.851563 64.855469 65.960938 61.035156 65.960938 L 15.128906 65.960938 C 11.3125 65.960938 8.207031 62.855469 8.207031 59.039063 L 8.207031 58 L 67.957031 58 Z M 71.914063 46.042969 L 4.25 46.042969 C 1.914063 46.042969 0 47.957031 0 50.296875 L 0 53.75 C 0 56.085938 1.914063 58 4.25 58 L 5.207031 58 L 5.207031 59.039063 C 5.207031 64.496094 9.671875 68.960938 15.128906 68.960938 L 61.035156 68.960938 C 66.492188 68.960938 70.957031 64.496094 70.957031 59.039063 L 70.957031 58 L 71.914063 58 C 74.253906 58 76.164063 56.085938 76.164063 53.75 L 76.164063 50.296875 C 76.164063 47.957031 74.253906 46.042969 71.914063 46.042969 "/>
</g>
<path style="fill:#81b3d2;" d="M 16.160156 37.859375 L 21.636719 41.859375 L 27.113281 37.859375 L 32.589844 41.859375 L 38.070313 37.859375 L 43.546875 41.859375 L 49.027344 37.859375 L 54.503906 41.859375 L 59.984375 37.859375 L 65.472656 41.859375 L 71.84375 37.210938 L 70.074219 34.789063 L 65.472656 38.144531 L 59.984375 34.144531 L 54.503906 38.144531 L 49.027344 34.144531 L 43.546875 38.144531 L 38.070313 34.144531 L 32.589844 38.144531 L 27.113281 34.144531 L 21.636719 38.144531 L 16.164063 34.144531 L 10.6875 38.144531 L 6.09375 34.789063 L 4.324219 37.210938 L 10.6875 41.859375 "/>
<path style="fill:#81b3d2;" d="M 38.082031 3 C 54.113281 3 67.234375 14.15625 67.925781 28.09375 L 8.242188 28.09375 C 8.933594 14.15625 22.050781 3 38.082031 3 M 70.886719 31.09375 C 70.929688 30.484375 70.941406 28.480469 70.925781 28.09375 C 70.242188 12.476563 55.804688 0 38.082031 0 C 20.363281 0 5.925781 12.476563 5.242188 28.09375 C 5.222656 28.480469 5.238281 30.484375 5.28125 31.09375 "/>
<path style="fill:#81b3d2;" d="M 38.082031 13.042969 C 39.1875 13.042969 40.082031 13.9375 40.082031 15.042969 C 40.082031 16.148438 39.1875 17.042969 38.082031 17.042969 C 36.980469 17.042969 36.082031 16.148438 36.082031 15.042969 C 36.082031 13.9375 36.980469 13.042969 38.082031 13.042969 "/>
<path style="fill:#81b3d2;" d="M 30.082031 8.082031 C 31.1875 8.082031 32.082031 8.980469 32.082031 10.082031 C 32.082031 11.1875 31.1875 12.082031 30.082031 12.082031 C 28.980469 12.082031 28.082031 11.1875 28.082031 10.082031 C 28.082031 8.980469 28.980469 8.082031 30.082031 8.082031 "/>
<path style="fill:#81b3d2;" d="M 46.082031 8.082031 C 47.1875 8.082031 48.082031 8.980469 48.082031 10.082031 C 48.082031 11.1875 47.1875 12.082031 46.082031 12.082031 C 44.980469 12.082031 44.082031 11.1875 44.082031 10.082031 C 44.082031 8.980469 44.980469 8.082031 46.082031 8.082031 "/>
</g>
</svg>
