<?xml version="1.0" encoding="UTF-8"?>
<svg xmlns="http://www.w3.org/2000/svg" xmlns:xlink="http://www.w3.org/1999/xlink" width="20.29pt" height="18.85pt" viewBox="0 0 20.29 18.85" version="1.1">
<defs>
<clipPath id="clip1">
  <path d="M 0 0 L 20.289063 0 L 20.289063 18.851563 L 0 18.851563 Z M 0 0 "/>
</clipPath>
</defs>
<g id="surface1">
<g clip-path="url(#clip1)" clip-rule="nonzero">
<path style=" stroke:none;fill-rule:nonzero;fill:#63d1bb;fill-opacity:1;" d="M 17.015625 11.566406 L 3.277344 11.566406 L 2.46875 8.730469 L 17.828125 8.730469 Z M 15.363281 17.351563 L 4.929688 17.351563 L 3.707031 13.066406 L 16.585938 13.066406 Z M 19.542969 7.230469 L 16.394531 7.230469 L 12.988281 0.414063 C 12.800781 0.0429688 12.351563 -0.105469 11.980469 0.078125 C 11.609375 0.265625 11.460938 0.714844 11.644531 1.085938 L 14.714844 7.230469 L 5.578125 7.230469 L 8.648438 1.085938 C 8.835938 0.714844 8.683594 0.265625 8.3125 0.078125 C 7.945313 -0.105469 7.492188 0.0429688 7.308594 0.414063 L 3.902344 7.230469 L 0.75 7.230469 C 0.335938 7.230469 0 7.566406 0 7.980469 C 0 8.394531 0.335938 8.730469 0.75 8.730469 L 0.90625 8.730469 L 1.761719 11.71875 C 1.574219 11.859375 1.445313 12.066406 1.445313 12.316406 C 1.445313 12.710938 1.753906 13.027344 2.144531 13.054688 L 3.796875 18.851563 L 16.496094 18.851563 L 18.152344 13.054688 C 18.539063 13.027344 18.847656 12.710938 18.847656 12.316406 C 18.847656 12.066406 18.71875 11.855469 18.53125 11.71875 L 19.386719 8.730469 L 19.542969 8.730469 C 19.957031 8.730469 20.292969 8.394531 20.292969 7.980469 C 20.292969 7.566406 19.957031 7.230469 19.542969 7.230469 "/>
</g>
</g>
</svg>
