<?xml version="1.0" encoding="UTF-8"?>
<svg xmlns="http://www.w3.org/2000/svg" xmlns:xlink="http://www.w3.org/1999/xlink" width="34.37pt" height="34.37pt" viewBox="0 0 34.37 34.37" version="1.1">
<defs>
<clipPath id="clip1">
  <path d="M 29 13 L 34.371094 13 L 34.371094 21 L 29 21 Z M 29 13 "/>
</clipPath>
<clipPath id="clip2">
  <path d="M 9 26 L 25 26 L 25 34.371094 L 9 34.371094 Z M 9 26 "/>
</clipPath>
</defs>
<g id="surface1">
<path style=" stroke:none;fill-rule:nonzero;fill:#63d1bb;fill-opacity:1;" d="M 0.285156 14.066406 C -0.0976563 16.140625 -0.0976563 18.277344 0.292969 20.367188 L 4.414063 17.15625 "/>
<path style=" stroke:none;fill-rule:nonzero;fill:#63d1bb;fill-opacity:1;" d="M 24.402344 1.582031 C 19.621094 -0.625 13.960938 -0.5625 9.148438 1.988281 L 16.660156 7.613281 "/>
<g clip-path="url(#clip1)" clip-rule="nonzero">
<path style=" stroke:none;fill-rule:nonzero;fill:#63d1bb;fill-opacity:1;" d="M 33.902344 13.171875 L 29.089844 16.921875 L 34.027344 20.617188 C 34.523438 18.171875 34.488281 15.628906 33.902344 13.171875 "/>
</g>
<g clip-path="url(#clip2)" clip-rule="nonzero">
<path style=" stroke:none;fill-rule:nonzero;fill:#63d1bb;fill-opacity:1;" d="M 9.207031 32.410156 C 14.054688 34.945313 19.933594 35.0625 24.9375 32.523438 L 16.84375 26.464844 "/>
</g>
<path style=" stroke:none;fill-rule:nonzero;fill:#63d1bb;fill-opacity:1;" d="M 7.914063 14.429688 L 1.679688 9.761719 C 1.359375 10.433594 1.085938 11.121094 0.855469 11.820313 L 6.164063 15.792969 "/>
<path style=" stroke:none;fill-rule:nonzero;fill:#63d1bb;fill-opacity:1;" d="M 18.59375 25.101563 L 26.929688 31.339844 C 27.207031 31.152344 27.480469 30.953125 27.75 30.742188 C 28.066406 30.492188 28.375 30.238281 28.667969 29.96875 L 20.34375 23.738281 "/>
<path style=" stroke:none;fill-rule:nonzero;fill:#63d1bb;fill-opacity:1;" d="M 11.414063 11.703125 L 4 6.15625 C 3.539063 6.707031 3.117188 7.28125 2.734375 7.878906 L 9.664063 13.066406 "/>
<path style=" stroke:none;fill-rule:nonzero;fill:#63d1bb;fill-opacity:1;" d="M 22.09375 22.371094 L 30.183594 28.433594 C 30.65625 27.886719 31.089844 27.320313 31.480469 26.730469 L 23.84375 21.011719 "/>
<path style=" stroke:none;fill-rule:nonzero;fill:#63d1bb;fill-opacity:1;" d="M 14.914063 8.976563 L 7.195313 3.199219 C 7.003906 3.339844 6.8125 3.480469 6.621094 3.628906 C 6.226563 3.9375 5.851563 4.257813 5.488281 4.59375 L 13.164063 10.339844 "/>
<path style=" stroke:none;fill-rule:nonzero;fill:#63d1bb;fill-opacity:1;" d="M 25.59375 19.648438 L 32.5625 24.867188 C 32.894531 24.207031 33.179688 23.527344 33.417969 22.835938 L 27.34375 18.285156 "/>
<path style=" stroke:none;fill-rule:nonzero;fill:#63d1bb;fill-opacity:1;" d="M 26.449219 2.703125 L 0.878906 22.625 C 1.113281 23.320313 1.390625 24.011719 1.71875 24.683594 L 28.238281 4.019531 C 27.667969 3.539063 27.070313 3.097656 26.449219 2.703125 "/>
<path style=" stroke:none;fill-rule:nonzero;fill:#63d1bb;fill-opacity:1;" d="M 30.742188 6.621094 C 30.441406 6.234375 30.128906 5.867188 29.804688 5.515625 L 2.785156 26.5625 C 3.046875 26.96875 3.328125 27.359375 3.628906 27.746094 C 3.769531 27.929688 3.917969 28.105469 4.0625 28.28125 L 31.15625 7.175781 C 31.019531 6.988281 30.886719 6.804688 30.742188 6.621094 "/>
<path style=" stroke:none;fill-rule:nonzero;fill:#63d1bb;fill-opacity:1;" d="M 32.296875 8.996094 L 5.550781 29.835938 C 6.097656 30.335938 6.667969 30.796875 7.257813 31.21875 L 33.222656 10.988281 C 32.960938 10.3125 32.652344 9.644531 32.296875 8.996094 "/>
</g>
</svg>
