<?xml version="1.0" encoding="UTF-8"?>
<svg xmlns="http://www.w3.org/2000/svg" xmlns:xlink="http://www.w3.org/1999/xlink" width="46.58pt" height="27.33pt" viewBox="0 0 46.58 27.33" version="1.1">
<defs>
<clipPath id="clip1">
  <path d="M 0 0 L 46.578125 0 L 46.578125 27.328125 L 0 27.328125 Z M 0 0 "/>
</clipPath>
</defs>
<g id="surface1">
<g clip-path="url(#clip1)" clip-rule="nonzero">
<path style=" stroke:none;fill-rule:nonzero;fill:#63d1bb;fill-opacity:1;" d="M 3.023438 2.714844 L 43.226563 2.714844 L 43.226563 24.949219 L 3.023438 24.949219 Z M 42.667969 -0.00390625 L 3.902344 -0.00390625 C 1.75 -0.00390625 0 1.746094 0 3.902344 L 0 23.425781 C 0 25.582031 1.75 27.328125 3.902344 27.328125 L 42.667969 27.328125 C 44.828125 27.328125 46.574219 25.582031 46.574219 23.425781 L 46.574219 3.902344 C 46.574219 1.746094 44.828125 -0.00390625 42.667969 -0.00390625 "/>
</g>
<path style=" stroke:none;fill-rule:nonzero;fill:#63d1bb;fill-opacity:1;" d="M 23.289063 8.515625 C 26.222656 8.515625 28.601563 10.898438 28.601563 13.832031 C 28.601563 16.765625 26.222656 19.144531 23.289063 19.144531 C 20.351563 19.144531 17.972656 16.765625 17.972656 13.832031 C 17.972656 10.898438 20.351563 8.515625 23.289063 8.515625 M 6.925781 21.042969 L 39.324219 21.042969 L 39.324219 6.621094 L 6.925781 6.621094 "/>
</g>
</svg>
