<?xml version="1.0" encoding="UTF-8"?>
<svg xmlns="http://www.w3.org/2000/svg" xmlns:xlink="http://www.w3.org/1999/xlink" width="32.67pt" height="32.49pt" viewBox="0 0 32.67 32.49" version="1.1">
<defs>
<clipPath id="clip1">
  <path d="M 0 0 L 32.671875 0 L 32.671875 32.488281 L 0 32.488281 Z M 0 0 "/>
</clipPath>
</defs>
<g id="surface1">
<g clip-path="url(#clip1)" clip-rule="nonzero">
<path style=" stroke:none;fill-rule:nonzero;fill:#63d1bb;fill-opacity:1;" d="M 17.269531 32.488281 L 29.777344 32.488281 L 29.777344 18.578125 L 17.269531 18.578125 Z M 19.253906 4.902344 C 19.808594 4.105469 20.460938 3.4375 21.140625 2.988281 C 21.816406 2.535156 22.5 2.304688 23.1875 2.304688 L 23.191406 2.304688 C 23.765625 2.304688 24.308594 2.523438 24.6875 2.855469 C 25.0625 3.191406 25.257813 3.59375 25.257813 4.027344 C 25.253906 4.539063 24.984375 5.285156 23.792969 6.15625 C 22.652344 6.984375 20.691406 7.832031 17.664063 8.421875 C 17.957031 7.222656 18.511719 5.949219 19.253906 4.902344 M 8.714844 6.53125 C 8.09375 6.140625 7.714844 5.746094 7.496094 5.394531 C 7.273438 5.042969 7.199219 4.734375 7.199219 4.433594 C 7.195313 3.929688 7.445313 3.390625 7.890625 2.972656 C 8.328125 2.558594 8.917969 2.304688 9.453125 2.304688 L 9.464844 2.304688 C 10.148438 2.304688 10.832031 2.535156 11.511719 2.988281 C 12.527344 3.660156 13.484375 4.839844 14.15625 6.175781 C 14.496094 6.851563 14.765625 7.5625 14.945313 8.261719 C 11.863281 7.941406 9.867188 7.261719 8.714844 6.53125 M 31.078125 8.871094 L 23.742188 8.871094 C 24.265625 8.601563 24.726563 8.320313 25.140625 8.023438 C 26.726563 6.890625 27.5625 5.453125 27.558594 4.027344 C 27.5625 2.855469 27.003906 1.824219 26.199219 1.125 C 25.394531 0.421875 24.332031 0.0078125 23.183594 0.00390625 C 21.964844 0.00390625 20.832031 0.425781 19.863281 1.074219 C 18.402344 2.050781 17.257813 3.523438 16.4375 5.140625 C 16.398438 5.21875 16.359375 5.296875 16.324219 5.378906 C 16.023438 4.753906 15.675781 4.152344 15.28125 3.585938 C 14.59375 2.597656 13.761719 1.722656 12.785156 1.074219 C 11.816406 0.425781 10.683594 0.00390625 9.464844 0.00390625 C 8.25 0.0078125 7.140625 0.519531 6.308594 1.300781 C 5.480469 2.082031 4.898438 3.183594 4.894531 4.433594 C 4.894531 5.164063 5.105469 5.929688 5.546875 6.621094 C 6.097656 7.492188 6.96875 8.25 8.179688 8.871094 L 1.589844 8.871094 C 0.710938 8.871094 0 9.582031 0 10.460938 L 0 16.355469 L 15.394531 16.355469 L 15.394531 8.867188 L 17.269531 8.867188 L 17.269531 16.355469 L 32.664063 16.355469 L 32.664063 10.460938 C 32.667969 9.582031 31.957031 8.871094 31.078125 8.871094 M 2.894531 32.488281 L 15.398438 32.488281 L 15.398438 18.578125 L 2.894531 18.578125 "/>
</g>
</g>
</svg>
