<?xml version="1.0" encoding="UTF-8"?>
<svg xmlns="http://www.w3.org/2000/svg" xmlns:xlink="http://www.w3.org/1999/xlink" width="112.39pt" height="46.09pt" viewBox="0 0 112.39 46.09" version="1.1">
<defs>
<clipPath id="clip1">
  <path d="M 0 0 L 112.390625 0 L 112.390625 46.089844 L 0 46.089844 Z M 0 0 "/>
</clipPath>
</defs>
<g id="surface1">
<g clip-path="url(#clip1)" clip-rule="nonzero">
<path style=" stroke:none;fill-rule:nonzero;fill:rgb(0%,0%,0%);fill-opacity:1;" d="M 110.226563 41.882813 C 114.621094 42.75 111.070313 6.023438 110.375 3.570313 C 108.414063 -2.996094 83.699219 1.429688 78.195313 1.855469 C 65.472656 2.84375 53.007813 0.894531 40.582031 1.480469 C 34.378906 1.773438 5.730469 -0.332031 3.0625 3.464844 C -1.984375 10.671875 0.414063 29.261719 1.789063 38.542969 C -2.253906 39.320313 4.09375 42.695313 4.925781 43.4375 C 11.238281 45.632813 21.285156 43.21875 27.933594 43.835938 C 43.367188 45.304688 59.730469 41.640625 75.207031 42.878906 C 79.703125 44.023438 84.8125 43.898438 89.429688 44.117188 C 92.84375 49.691406 109.09375 41.65625 110.226563 41.882813 C 110.128906 41.863281 110.734375 41.984375 110.226563 41.882813 "/>
</g>
<path style=" stroke:none;fill-rule:nonzero;fill:rgb(100%,100%,100%);fill-opacity:1;" d="M 26.058594 24.414063 C 25.980469 21.867188 25.574219 19.339844 25.605469 16.789063 C 25.636719 14.722656 25.976563 12.601563 25.265625 10.625 C 25.308594 10.398438 25.355469 10.175781 25.398438 9.949219 C 25.582031 8.957031 22.296875 9.484375 21.78125 10.390625 C 21.453125 10.65625 21.289063 10.972656 21.425781 11.296875 C 21.460938 11.378906 21.492188 11.460938 21.523438 11.546875 C 20.898438 14.585938 20.03125 17.53125 19.035156 20.476563 C 18.652344 21.605469 18.191406 22.707031 17.800781 23.832031 C 17.25 22.78125 16.691406 21.746094 16.242188 20.625 C 14.941406 17.367188 13.765625 14.074219 12.171875 10.9375 C 12.355469 9.488281 9.136719 9.640625 8.5 10.96875 C 7.730469 12.578125 7.832031 14.199219 8.085938 15.917969 C 8.371094 17.855469 8.417969 19.761719 8.441406 21.71875 C 8.488281 25.488281 8.78125 29.253906 8.839844 33.027344 C 8.503906 33.398438 8.402344 33.863281 8.75 34.332031 C 8.90625 34.535156 9.09375 34.695313 9.292969 34.851563 C 10.152344 35.539063 12.617188 34.953125 12.613281 33.644531 C 12.597656 29.734375 12.316406 25.832031 12.210938 21.921875 C 12.203125 21.539063 12.195313 21.15625 12.191406 20.769531 C 12.246094 20.910156 12.296875 21.046875 12.351563 21.183594 C 12.960938 22.703125 13.597656 24.183594 14.425781 25.597656 C 15.25 27 15.664063 28.507813 16.136719 30.035156 C 15.957031 30.242188 15.851563 30.476563 15.917969 30.710938 C 15.878906 30.878906 15.984375 30.984375 16.15625 31.050781 C 16.761719 31.570313 17.902344 31.3125 18.535156 31.042969 C 18.808594 30.929688 19.070313 30.796875 19.320313 30.640625 C 19.648438 30.4375 20.160156 29.996094 20.011719 29.542969 C 19.984375 29.453125 19.957031 29.367188 19.929688 29.277344 C 20.375 28.074219 20.601563 26.820313 20.84375 25.550781 C 21.105469 24.191406 21.585938 22.910156 22.074219 21.625 C 22.125 22.214844 22.175781 22.800781 22.222656 23.386719 C 22.414063 25.808594 22.253906 28.199219 22.230469 30.625 C 22.222656 31.425781 22.28125 32.175781 22.4375 32.960938 C 22.5 33.285156 22.785156 34.675781 22.703125 34.75 C 22.125 35.285156 22.292969 35.941406 23.070313 36.113281 C 23.9375 36.304688 25.042969 36.015625 25.699219 35.410156 C 26.835938 34.359375 26.296875 32.710938 26.039063 31.386719 C 25.605469 29.164063 26.128906 26.675781 26.058594 24.414063 "/>
<path style=" stroke:none;fill-rule:nonzero;fill:rgb(100%,100%,100%);fill-opacity:1;" d="M 33.996094 25.054688 C 33.925781 23.167969 33.269531 21.390625 33.261719 19.480469 C 33.25 17.292969 33.433594 15.125 33.113281 12.949219 C 33.011719 12.257813 29.265625 13.042969 29.398438 13.945313 C 29.691406 15.945313 29.585938 17.957031 29.546875 19.972656 C 29.511719 21.914063 29.992188 23.671875 30.242188 25.574219 C 30.496094 27.527344 30.160156 29.519531 30.382813 31.472656 C 30.484375 32.386719 31.09375 34.074219 30.46875 34.871094 C 30.066406 35.375 31.859375 35.195313 31.941406 35.179688 C 32.667969 35.042969 33.640625 34.808594 34.128906 34.195313 C 34.746094 33.410156 34.3125 31.894531 34.179688 31.007813 C 33.878906 29.054688 34.070313 27.027344 33.996094 25.054688 "/>
<path style=" stroke:none;fill-rule:nonzero;fill:rgb(100%,100%,100%);fill-opacity:1;" d="M 49.492188 21.902344 C 47.535156 19.261719 43.902344 21.164063 41.367188 20.441406 C 40.058594 20.070313 40.042969 18.285156 40.046875 17.21875 C 40.050781 15.867188 39.9375 14.625 39.789063 13.285156 C 39.675781 12.285156 39.765625 11.273438 40.496094 10.527344 C 40.632813 10.390625 41.3125 10.210938 41.265625 10.207031 C 41.597656 10.148438 41.90625 10.132813 42.277344 10.117188 C 43.746094 10.054688 46.65625 10.339844 46.09375 12.476563 C 45.839844 13.433594 49.503906 12.882813 49.769531 11.871094 C 50.921875 7.507813 42.855469 8.34375 40.578125 8.949219 C 38.480469 9.507813 36.167969 10.699219 36.046875 13.125 C 35.988281 14.28125 36.304688 15.382813 36.355469 16.527344 C 36.414063 17.847656 36.167969 19.164063 36.628906 20.433594 C 37.65625 23.265625 41.867188 21.929688 44.011719 22.089844 C 47.660156 22.363281 46.570313 27.28125 46.617188 29.570313 C 46.644531 30.796875 47.738281 32.828125 46.820313 33.847656 C 46.253906 34.476563 44.9375 34.511719 44.171875 34.578125 C 43.398438 34.640625 42.082031 34.875 41.566406 34.140625 C 40.625 32.796875 41.65625 30.535156 41.453125 28.992188 C 41.339844 28.113281 37.59375 28.902344 37.734375 29.988281 C 38.058594 32.480469 36.40625 35.820313 40.015625 36.246094 C 42.332031 36.523438 44.941406 36.09375 47.132813 35.367188 C 48.265625 34.988281 49.320313 34.472656 50.210938 33.664063 C 51.191406 32.773438 50.867188 31.4375 50.605469 30.296875 C 49.964844 27.53125 51.300781 24.34375 49.492188 21.902344 "/>
<path style=" stroke:none;fill-rule:nonzero;fill:rgb(100%,100%,100%);fill-opacity:1;" d="M 65.933594 21.722656 C 65.820313 18.140625 65.28125 14.59375 65.265625 11.003906 C 65.257813 9.132813 61.503906 9.765625 61.511719 11.328125 C 61.523438 14.753906 61.980469 18.128906 62.15625 21.546875 C 62.160156 21.613281 62.164063 21.683594 62.167969 21.753906 C 60.320313 21.738281 58.46875 21.921875 56.617188 21.988281 C 56.804688 17.589844 56.035156 13.230469 56.203125 8.839844 C 56.222656 8.285156 52.527344 8.753906 52.488281 9.832031 C 52.324219 14.082031 53.042969 18.292969 52.917969 22.542969 C 52.855469 24.566406 52.683594 26.589844 52.667969 28.617188 C 52.664063 29.65625 52.832031 30.691406 52.980469 31.714844 C 53.121094 32.660156 53.441406 33.925781 53.152344 34.863281 C 52.929688 35.59375 56.535156 35.140625 56.820313 34.203125 C 57.335938 32.515625 56.609375 30.371094 56.4375 28.664063 C 56.269531 27.027344 56.398438 25.34375 56.515625 23.683594 C 58.441406 23.558594 60.367188 23.402344 62.285156 23.671875 C 62.367188 24.980469 62.46875 26.285156 62.589844 27.597656 C 62.691406 28.695313 62.761719 29.789063 62.777344 30.894531 C 62.789063 31.859375 62.910156 33.261719 62.566406 34.175781 C 61.832031 36.128906 65.554688 35.96875 66.097656 34.523438 C 66.765625 32.746094 66.574219 30.539063 66.460938 28.671875 C 66.320313 26.351563 66.007813 24.046875 65.933594 21.722656 "/>
<path style=" stroke:none;fill-rule:nonzero;fill:rgb(100%,100%,100%);fill-opacity:1;" d="M 82.003906 25.96875 C 81.109375 23.351563 79.75 21.058594 78.570313 18.570313 C 79.523438 16.722656 80.484375 14.871094 81.355469 12.984375 C 82.140625 11.269531 82.726563 9.359375 84.273438 8.148438 C 84.820313 7.726563 84.796875 7.300781 84.03125 7.246094 C 83.203125 7.191406 82.074219 7.429688 81.402344 7.953125 C 79.996094 9.050781 79.101563 10.386719 78.367188 12 C 77.484375 13.949219 76.566406 15.859375 75.605469 17.765625 C 75.535156 17.90625 75.464844 18.046875 75.390625 18.1875 C 74.925781 18.488281 74.648438 18.910156 74.785156 19.390625 C 74.035156 20.871094 73.265625 22.347656 72.414063 23.765625 C 72.128906 18.515625 71.507813 13.269531 71.320313 8.011719 C 71.277344 6.808594 67.554688 7.558594 67.605469 9.007813 C 67.835938 15.523438 68.761719 22.027344 68.828125 28.542969 C 68.808594 28.5625 68.792969 28.578125 68.777344 28.59375 C 68.492188 28.886719 68.601563 29.0625 68.832031 29.164063 C 68.832031 30.824219 68.773438 32.484375 68.632813 34.148438 C 68.183594 34.859375 69.070313 35.230469 69.660156 35.230469 L 69.753906 35.230469 C 70.453125 35.230469 72.242188 34.898438 72.332031 33.9375 C 72.511719 31.945313 72.566406 29.953125 72.550781 27.964844 C 74.058594 26.339844 75.292969 24.519531 76.398438 22.617188 C 77.121094 24.023438 77.804688 25.4375 78.285156 26.96875 C 79.105469 29.570313 80.46875 31.957031 81.257813 34.570313 C 81.773438 36.285156 85.488281 35.273438 84.976563 33.574219 C 84.183594 30.964844 82.882813 28.550781 82.003906 25.96875 "/>
<path style=" stroke:none;fill-rule:nonzero;fill:rgb(100%,100%,100%);fill-opacity:1;" d="M 90.433594 21.429688 C 90.335938 20.246094 90.226563 19.066406 90.148438 17.878906 C 89.996094 15.664063 90.257813 12.578125 92.320313 11.234375 C 92.871094 10.875 93.910156 10.9375 94.554688 10.820313 C 95.476563 10.65625 96.410156 10.449219 97.238281 11 C 98.386719 11.761719 98.101563 14.472656 98.101563 15.621094 C 98.097656 17.523438 98.300781 19.417969 98.398438 21.320313 C 97.871094 21.371094 97.339844 21.402344 96.800781 21.390625 C 94.628906 21.339844 92.488281 20.996094 90.433594 21.429688 M 104.308594 21.574219 C 104.105469 20.78125 103.003906 20.765625 102.152344 20.839844 C 102.140625 20.523438 102.128906 20.203125 102.117188 19.886719 C 101.996094 17.359375 101.960938 14.78125 101.746094 12.261719 C 101.546875 9.933594 100.242188 9.097656 97.976563 9.183594 C 95.683594 9.269531 93.015625 9.683594 90.875 10.515625 C 88.402344 11.476563 87.023438 13.300781 86.550781 15.90625 C 86.027344 18.765625 86.777344 21.804688 86.902344 24.679688 C 87.050781 28.003906 86.964844 31.335938 86.960938 34.660156 C 86.960938 35.207031 90.679688 34.691406 90.679688 33.664063 C 90.683594 31.03125 90.71875 28.398438 90.679688 25.765625 C 90.664063 24.988281 90.628906 24.214844 90.582031 23.445313 C 91.882813 22.882813 94.082031 23.457031 95.375 23.578125 C 96.425781 23.679688 97.433594 23.425781 98.453125 23.304688 C 98.472656 25.496094 98.554688 27.703125 98.644531 29.894531 C 98.691406 31.015625 99.097656 33.246094 98.308594 34.175781 C 97.894531 34.664063 99.714844 34.5 99.785156 34.488281 C 100.539063 34.347656 101.453125 34.109375 101.96875 33.5 C 102.871094 32.4375 102.402344 29.902344 102.351563 28.636719 C 102.277344 26.824219 102.253906 25.007813 102.214844 23.195313 C 103.3125 23.050781 104.511719 22.378906 104.308594 21.574219 "/>
<path style=" stroke:none;fill-rule:nonzero;fill:rgb(100%,100%,100%);fill-opacity:1;" d="M 30.777344 10.371094 C 31.273438 10.324219 31.769531 10.15625 32.179688 9.875 C 32.261719 9.808594 32.339844 9.738281 32.425781 9.667969 C 32.917969 9.351563 33.34375 8.882813 33.113281 8.378906 C 32.636719 7.328125 32.710938 6.261719 32.71875 5.136719 C 32.726563 4.230469 31.804688 3.957031 31.03125 4.023438 C 30.34375 4.085938 28.972656 4.574219 28.964844 5.464844 C 28.960938 6.410156 28.898438 7.378906 29.070313 8.308594 C 29.023438 8.414063 29 8.535156 28.972656 8.644531 C 28.917969 8.84375 28.984375 9.042969 29.105469 9.203125 C 29.105469 9.246094 29.109375 9.289063 29.109375 9.332031 C 29.113281 9.433594 29.117188 9.542969 29.121094 9.648438 C 29.191406 9.867188 29.328125 10.035156 29.53125 10.148438 C 29.898438 10.371094 30.359375 10.414063 30.777344 10.371094 "/>
</g>
</svg>
