<?xml version="1.0" encoding="UTF-8"?>
<svg xmlns="http://www.w3.org/2000/svg" xmlns:xlink="http://www.w3.org/1999/xlink" width="1150pt" height="23pt" viewBox="0 0 1150 23" version="1.1">
<g id="surface1">
<path style=" stroke:none;fill-rule:nonzero;fill:rgb(90.19928%,90.59906%,90.99884%);fill-opacity:1;" d="M 1150 23 C 1140.980469 23 1136.269531 18.410156 1132.488281 14.722656 C 1129.070313 11.402344 1126.609375 9 1121.25 9 C 1115.890625 9 1113.429688 11.402344 1110.019531 14.722656 C 1106.230469 18.410156 1101.519531 23 1092.5 23 C 1083.488281 23 1078.78125 18.410156 1074.988281 14.722656 C 1071.578125 11.402344 1069.109375 9 1063.761719 9 C 1058.398438 9 1055.929688 11.402344 1052.519531 14.722656 C 1048.730469 18.410156 1044.019531 23 1035.011719 23 C 1025.988281 23 1021.28125 18.410156 1017.488281 14.722656 C 1014.078125 11.402344 1011.609375 9 1006.261719 9 C 1000.898438 9 998.433594 11.402344 995.023438 14.722656 C 991.234375 18.410156 986.523438 23 977.507813 23 C 968.492188 23 963.78125 18.410156 959.996094 14.722656 C 956.582031 11.402344 954.117188 9 948.761719 9 C 943.402344 9 940.9375 11.402344 937.527344 14.722656 C 933.738281 18.410156 929.027344 23 920.011719 23 C 910.996094 23 906.28125 18.410156 902.496094 14.722656 C 899.085938 11.402344 896.621094 9 891.261719 9 C 885.90625 9 883.441406 11.402344 880.027344 14.722656 C 876.242188 18.410156 871.53125 23 862.515625 23 C 853.496094 23 848.785156 18.410156 845 14.722656 C 841.585938 11.402344 839.121094 9 833.765625 9 C 828.40625 9 825.941406 11.398438 822.53125 14.722656 C 818.746094 18.410156 814.035156 23 805.019531 23 C 796.003906 23 791.292969 18.410156 787.507813 14.722656 C 784.09375 11.402344 781.628906 9 776.269531 9 C 770.914063 9 768.449219 11.402344 765.039063 14.722656 C 761.253906 18.410156 756.542969 23 747.527344 23 C 738.511719 23 733.796875 18.410156 730.011719 14.722656 C 726.601563 11.402344 724.136719 9 718.777344 9 C 713.421875 9 710.957031 11.402344 707.546875 14.722656 C 703.761719 18.410156 699.050781 23 690.03125 23 C 681.015625 23 676.304688 18.410156 672.519531 14.722656 C 669.109375 11.402344 666.644531 9 661.285156 9 C 655.929688 9 653.464844 11.402344 650.054688 14.722656 C 646.265625 18.410156 641.554688 23 632.539063 23 C 623.523438 23 618.8125 18.410156 615.023438 14.722656 C 611.613281 11.402344 609.148438 9 603.789063 9 C 598.429688 9 595.964844 11.402344 592.554688 14.722656 C 588.769531 18.410156 584.058594 23 575.039063 23 C 566.023438 23 561.3125 18.410156 557.527344 14.722656 C 554.113281 11.402344 551.648438 9 546.292969 9 C 540.933594 9 538.46875 11.402344 535.058594 14.722656 C 531.273438 18.410156 526.5625 23 517.542969 23 C 508.527344 23 503.816406 18.410156 500.03125 14.722656 C 496.617188 11.402344 494.152344 9 488.796875 9 C 483.4375 9 480.972656 11.402344 477.5625 14.722656 C 473.773438 18.410156 469.0625 23 460.046875 23 C 451.027344 23 446.316406 18.410156 442.53125 14.722656 C 439.117188 11.402344 436.652344 9 431.292969 9 C 425.933594 9 423.46875 11.402344 420.058594 14.722656 C 416.273438 18.410156 411.558594 23 402.542969 23 C 393.527344 23 388.8125 18.410156 385.027344 14.722656 C 381.617188 11.402344 379.152344 9 373.792969 9 C 368.433594 9 365.96875 11.402344 362.558594 14.722656 C 358.769531 18.410156 354.058594 23 345.042969 23 C 336.023438 23 331.3125 18.410156 327.527344 14.722656 C 324.113281 11.402344 321.648438 9 316.289063 9 C 310.933594 9 308.46875 11.402344 305.054688 14.722656 C 301.269531 18.410156 296.554688 23 287.539063 23 C 278.519531 23 273.808594 18.410156 270.023438 14.722656 C 266.609375 11.402344 264.144531 9 258.785156 9 C 253.429688 9 250.964844 11.402344 247.550781 14.722656 C 243.765625 18.410156 239.054688 23 230.039063 23 C 221.023438 23 216.3125 18.410156 212.523438 14.722656 C 209.113281 11.402344 206.648438 9 201.289063 9 C 195.929688 9 193.464844 11.402344 190.054688 14.722656 C 186.265625 18.410156 181.554688 23 172.539063 23 C 163.519531 23 158.808594 18.410156 155.019531 14.722656 C 151.609375 11.402344 149.144531 9 143.785156 9 C 138.425781 9 135.960938 11.402344 132.546875 14.722656 C 128.761719 18.410156 124.046875 23 115.027344 23 C 106.011719 23 101.300781 18.410156 97.511719 14.722656 C 94.097656 11.402344 91.632813 9 86.273438 9 C 80.914063 9 78.449219 11.402344 75.035156 14.722656 C 71.25 18.410156 66.535156 23 57.519531 23 C 48.5 23 43.785156 18.414063 40 14.722656 C 36.585938 11.402344 34.121094 9 28.757813 9 C 23.398438 9 20.933594 11.402344 17.519531 14.722656 C 13.730469 18.410156 9.019531 23 0 23 L 0 14 C 5.359375 14 7.828125 11.597656 11.242188 8.277344 C 15.027344 4.589844 19.742188 0 28.757813 0 C 37.777344 0 42.492188 4.589844 46.277344 8.277344 C 49.691406 11.597656 52.15625 14 57.519531 14 C 62.878906 14 65.34375 11.597656 68.757813 8.277344 C 72.542969 4.589844 77.253906 0 86.273438 0 C 95.292969 0 100.003906 4.589844 103.789063 8.277344 C 107.203125 11.597656 109.667969 14 115.027344 14 C 120.390625 14 122.855469 11.597656 126.269531 8.277344 C 130.054688 4.589844 134.765625 0 143.785156 0 C 152.800781 0 157.515625 4.589844 161.300781 8.277344 C 164.714844 11.597656 167.179688 14 172.539063 14 C 177.894531 14 180.363281 11.597656 183.773438 8.277344 C 187.558594 4.589844 192.273438 0 201.289063 0 C 210.304688 0 215.019531 4.589844 218.804688 8.277344 C 222.214844 11.597656 224.679688 14 230.039063 14 C 235.394531 14 237.859375 11.597656 241.273438 8.277344 C 245.058594 4.589844 249.769531 0 258.785156 0 C 267.804688 0 272.515625 4.589844 276.300781 8.277344 C 279.714844 11.597656 282.179688 14 287.539063 14 C 292.898438 14 295.363281 11.597656 298.773438 8.277344 C 302.5625 4.589844 307.273438 0 316.289063 0 C 325.308594 0 330.019531 4.589844 333.804688 8.277344 C 337.21875 11.597656 339.683594 14 345.042969 14 C 350.398438 14 352.863281 11.597656 356.277344 8.277344 C 360.0625 4.589844 364.773438 0 373.792969 0 C 382.808594 0 387.519531 4.589844 391.308594 8.277344 C 394.71875 11.597656 397.183594 14 402.542969 14 C 407.902344 14 410.367188 11.597656 413.777344 8.277344 C 417.566406 4.589844 422.277344 0 431.292969 0 C 440.3125 0 445.023438 4.589844 448.808594 8.277344 C 452.222656 11.597656 454.6875 14 460.046875 14 C 465.402344 14 467.867188 11.597656 471.28125 8.277344 C 475.066406 4.589844 479.777344 0 488.796875 0 C 497.8125 0 502.523438 4.589844 506.308594 8.277344 C 509.722656 11.597656 512.1875 14 517.542969 14 C 522.902344 14 525.367188 11.597656 528.777344 8.277344 C 532.5625 4.589844 537.273438 0 546.292969 0 C 555.308594 0 560.019531 4.589844 563.804688 8.277344 C 567.21875 11.597656 569.683594 14 575.039063 14 C 580.398438 14 582.863281 11.597656 586.273438 8.277344 C 590.0625 4.589844 594.769531 0 603.789063 0 C 612.804688 0 617.519531 4.589844 621.304688 8.277344 C 624.714844 11.597656 627.179688 14 632.539063 14 C 637.894531 14 640.359375 11.597656 643.773438 8.277344 C 647.558594 4.589844 652.269531 0 661.285156 0 C 670.304688 0 675.015625 4.589844 678.800781 8.277344 C 682.210938 11.601563 684.675781 14 690.03125 14 C 695.390625 14 697.855469 11.597656 701.265625 8.277344 C 705.050781 4.589844 709.765625 0 718.777344 0 C 727.796875 0 732.507813 4.589844 736.292969 8.277344 C 739.703125 11.597656 742.167969 14 747.527344 14 C 752.882813 14 755.347656 11.597656 758.757813 8.277344 C 762.542969 4.589844 767.253906 0 776.269531 0 C 785.285156 0 790 4.589844 793.785156 8.277344 C 797.195313 11.597656 799.660156 14 805.019531 14 C 810.378906 14 812.84375 11.597656 816.253906 8.277344 C 820.039063 4.589844 824.75 0 833.765625 0 C 842.78125 0 847.492188 4.589844 851.277344 8.277344 C 854.691406 11.597656 857.15625 14 862.515625 14 C 867.871094 14 870.335938 11.597656 873.75 8.277344 C 877.535156 4.589844 882.246094 0 891.261719 0 C 900.277344 0 904.988281 4.589844 908.777344 8.277344 C 912.1875 11.597656 914.652344 14 920.011719 14 C 925.371094 14 927.835938 11.597656 931.246094 8.277344 C 935.03125 4.589844 939.742188 0 948.761719 0 C 957.777344 0 962.488281 4.589844 966.273438 8.277344 C 969.6875 11.597656 972.152344 14 977.507813 14 C 982.867188 14 985.332031 11.597656 988.742188 8.277344 C 992.527344 4.589844 997.238281 0 1006.261719 0 C 1015.269531 0 1019.988281 4.589844 1023.769531 8.277344 C 1027.179688 11.597656 1029.648438 14 1035.011719 14 C 1040.359375 14 1042.828125 11.597656 1046.238281 8.277344 C 1050.03125 4.589844 1054.738281 0 1063.761719 0 C 1072.769531 0 1077.480469 4.589844 1081.269531 8.277344 C 1084.679688 11.597656 1087.148438 14 1092.5 14 C 1097.859375 14 1100.328125 11.597656 1103.738281 8.277344 C 1107.519531 4.589844 1112.238281 0 1121.25 0 C 1130.269531 0 1134.980469 4.589844 1138.769531 8.277344 C 1142.179688 11.597656 1144.640625 14 1150 14 "/>
</g>
</svg>
