<svg xmlns="http://www.w3.org/2000/svg" xmlns:xlink="http://www.w3.org/1999/xlink" width="27" height="34" viewBox="0 0 186 196" version="1.1">
<g id="surface1">
<path d="M 143.851563 70.351563 L 76.832031 30.84375 L 76.832031 30.832031 L 76.824219 30.835938 L 76.816406 30.832031 L 76.816406 30.84375 L 10.53125 70.304688 L 10.53125 17.574219 L 77.191406 10.585938 L 143.851563 17.574219 Z M 143.796875 77.34375 L 125.5625 88.085938 L 117.144531 93.046875 L 76.992188 69.160156 L 76.929688 76.113281 L 111.246094 96.519531 L 110.941406 96.699219 L 110.203125 97.136719 L 105.324219 100.007813 L 76.992188 83.152344 L 76.929688 90.105469 L 99.289063 103.402344 L 94.015625 106.929688 L 93.886719 107.007813 L 76.992188 97.058594 L 76.929688 104.007813 L 88.011719 110.535156 L 76.722656 117.3125 L 10.675781 78.054688 L 76.816406 38.300781 L 76.816406 38.308594 Z M 143.851563 143.402344 L 77.191406 183.0625 L 10.53125 143.402344 L 10.53125 85.785156 L 76.90625 125.292969 L 77.015625 132.453125 L 31.484375 105.351563 L 31.414063 112.300781 L 77.132813 139.777344 L 77.242188 147.125 L 31.542969 119.941406 L 31.476563 126.890625 L 77.191406 154.367188 L 123.34375 126.75 L 123.34375 119.769531 L 123.285156 119.800781 L 123.285156 97.097656 L 143.851563 84.816406 Z M 77.996094 0.582031 L 77.191406 0.496094 L 0.5 8.535156 L 0.5 149.105469 L 77.191406 194.738281 L 153.882813 149.105469 L 153.882813 8.535156 "/>
<g clip-path="url(#clip1)" clip-rule="nonzero">
<path style="fill:none;stroke-width:10;stroke-linecap:butt;stroke-linejoin:miter;stroke:rgb(13.299561%,12.199402%,12.199402%);stroke-opacity:1;stroke-miterlimit:10;" d="M 1438.515625 1249.684375 L 768.320313 1644.7625 L 768.320313 1644.879688 L 768.242188 1644.840625 L 768.164063 1644.879688 L 768.164063 1644.7625 L 105.3125 1250.153125 L 105.3125 1777.457813 L 771.914063 1847.340625 L 1438.515625 1777.457813 Z M 1437.96875 1179.7625 L 1255.625 1072.340625 L 1171.445313 1022.73125 L 769.921875 1261.598438 L 769.296875 1192.067188 L 1112.460938 988.004688 L 1109.414063 986.207813 L 1102.03125 981.832813 L 1053.242188 953.121875 L 769.921875 1121.676563 L 769.296875 1052.145313 L 992.890625 919.176563 L 940.15625 883.903125 L 938.867188 883.121875 L 769.921875 982.614063 L 769.296875 913.121875 L 880.117188 847.848438 L 767.226563 780.075 L 106.757813 1172.653125 L 768.164063 1570.192188 L 768.164063 1570.114063 Z M 1438.515625 519.176563 L 771.914063 122.575 L 105.3125 519.176563 L 105.3125 1095.348438 L 769.0625 700.270313 L 770.15625 628.66875 L 314.84375 899.684375 L 314.140625 830.192188 L 771.328125 555.426563 L 772.421875 481.95 L 315.429688 753.785938 L 314.765625 684.29375 L 771.914063 409.528125 L 1233.4375 685.7 L 1233.4375 755.504688 L 1232.851563 755.192188 L 1232.851563 982.223438 L 1438.515625 1105.035938 Z M 779.960938 1947.379688 L 771.914063 1948.239063 L 5 1867.848438 L 5 462.145313 L 771.914063 5.817188 L 1538.828125 462.145313 L 1538.828125 1867.848438 Z M 779.960938 1947.379688 " transform="matrix(0.1,0,0,-0.1,0,195.32)"/>
</g>
</g>
</svg>
