<?xml version="1.0" encoding="UTF-8"?>
<svg xmlns="http://www.w3.org/2000/svg" xmlns:xlink="http://www.w3.org/1999/xlink" width="54.16pt" height="23.18pt" viewBox="0 0 54.16 23.18" version="1.1">
<defs>
<clipPath id="clip1">
  <path d="M 0 0 L 41 0 L 41 23.179688 L 0 23.179688 Z M 0 0 "/>
</clipPath>
<clipPath id="clip2">
  <path d="M 41 6 L 54.160156 6 L 54.160156 17 L 41 17 Z M 41 6 "/>
</clipPath>
</defs>
<g id="surface1">
<g clip-path="url(#clip1)" clip-rule="nonzero">
<path style=" stroke:none;fill-rule:nonzero;fill:#63d1bb;fill-opacity:1;" d="M 40.3125 5.707031 C 36.664063 4.738281 32.472656 4.042969 27.953125 4.042969 C 25.0625 4.042969 22.496094 4.285156 20.242188 4.664063 L 13.457031 -0.00390625 L 0 0.00390625 L 5.8125 6.1875 L 14.257813 6.1875 C 9.679688 7.785156 7.5 9.703125 7.5 9.703125 L 7.503906 13.476563 C 7.503906 13.476563 9.816406 15.390625 14.433594 16.996094 L 5.8125 16.988281 L 0 23.179688 L 13.457031 23.179688 L 20.273438 18.488281 C 22.53125 18.886719 25.09375 19.136719 27.953125 19.136719 C 32.472656 19.136719 36.664063 18.4375 40.3125 17.46875 C 39.136719 15.691406 38.398438 13.726563 38.394531 11.59375 C 38.398438 9.453125 39.132813 7.480469 40.3125 5.707031 "/>
</g>
<g clip-path="url(#clip2)" clip-rule="nonzero">
<path style=" stroke:none;fill-rule:nonzero;fill:#63d1bb;fill-opacity:1;" d="M 43.734375 6.742188 C 42.449219 8.347656 41.765625 9.992188 41.769531 11.582031 C 41.761719 13.179688 42.445313 14.820313 43.738281 16.429688 C 50.136719 14.265625 54.15625 11.589844 54.15625 11.589844 C 54.15625 11.589844 50.136719 8.910156 43.734375 6.742188 "/>
</g>
</g>
</svg>
