<?xml version="1.0" encoding="UTF-8"?>
<svg xmlns="http://www.w3.org/2000/svg" xmlns:xlink="http://www.w3.org/1999/xlink" width="31.97pt" height="37.3pt" viewBox="0 0 31.97 37.3" version="1.1">
<defs>
<clipPath id="clip1">
  <path d="M 0 0 L 31.96875 0 L 31.96875 37.300781 L 0 37.300781 Z M 0 0 "/>
</clipPath>
</defs>
<g id="surface1">
<g clip-path="url(#clip1)" clip-rule="nonzero">
<path style=" stroke:none;fill-rule:nonzero;fill:#63d1bb;fill-opacity:1;" d="M 0 21.3125 C 0 30.140625 7.15625 37.300781 15.984375 37.300781 C 15.984375 28.472656 8.828125 21.3125 0 21.3125 M 15.984375 7.992188 C 18.4375 7.992188 20.425781 9.980469 20.425781 12.433594 C 20.425781 14.882813 18.4375 16.875 15.984375 16.875 C 13.535156 16.875 11.542969 14.882813 11.542969 12.433594 C 11.542969 9.980469 13.535156 7.992188 15.984375 7.992188 M 4.625 16.429688 C 4.625 18.878906 6.617188 20.871094 9.066406 20.871094 C 10 20.871094 10.871094 20.578125 11.582031 20.089844 L 11.542969 20.425781 C 11.542969 22.875 13.535156 24.867188 15.984375 24.867188 C 18.4375 24.867188 20.425781 22.875 20.425781 20.425781 L 20.390625 20.089844 C 21.109375 20.585938 21.972656 20.871094 22.902344 20.871094 C 25.355469 20.871094 27.34375 18.878906 27.34375 16.429688 C 27.34375 14.660156 26.304688 13.144531 24.804688 12.433594 C 26.296875 11.722656 27.34375 10.203125 27.34375 8.4375 C 27.34375 5.984375 25.355469 3.996094 22.902344 3.996094 C 21.972656 3.996094 21.101563 4.289063 20.390625 4.777344 L 20.425781 4.441406 C 20.425781 1.988281 18.4375 0 15.984375 0 C 13.535156 0 11.542969 1.988281 11.542969 4.441406 L 11.582031 4.777344 C 10.859375 4.28125 10 3.996094 9.066406 3.996094 C 6.617188 3.996094 4.625 5.984375 4.625 8.4375 C 4.625 10.203125 5.667969 11.722656 7.167969 12.433594 C 5.667969 13.144531 4.625 14.660156 4.625 16.429688 M 15.984375 37.300781 C 24.8125 37.300781 31.972656 30.140625 31.972656 21.3125 C 23.144531 21.3125 15.984375 28.472656 15.984375 37.300781 "/>
</g>
</g>
</svg>
