<?xml version="1.0" encoding="UTF-8"?>
<svg xmlns="http://www.w3.org/2000/svg" xmlns:xlink="http://www.w3.org/1999/xlink" width="40.22pt" height="62.41pt" viewBox="0 0 40.22 62.41" version="1.1">
<defs>
<clipPath id="clip1">
  <path d="M 10 57 L 30 57 L 30 62.410156 L 10 62.410156 Z M 10 57 "/>
</clipPath>
<clipPath id="clip2">
  <path d="M 0 0 L 40.21875 0 L 40.21875 29 L 0 29 Z M 0 0 "/>
</clipPath>
</defs>
<g id="surface1">
<path style=" stroke:none;fill-rule:nonzero;fill:#149080;fill-opacity:1;" d="M 15.175781 37.957031 C 14.890625 38.921875 14.933594 40.148438 15.203125 41.597656 C 15.699219 44.230469 16.890625 47.636719 17.5625 51.265625 L 22.625 51.265625 C 23.320313 47.625 24.574219 44.214844 25.09375 41.582031 C 25.382813 40.136719 25.425781 38.921875 25.136719 37.964844 C 24.863281 37.066406 24.246094 36.347656 23.113281 35.664063 L 17.117188 35.664063 C 16.042969 36.34375 15.445313 37.054688 15.175781 37.957031 "/>
<g clip-path="url(#clip1)" clip-rule="nonzero">
<path style=" stroke:none;fill-rule:nonzero;fill:#149080;fill-opacity:1;" d="M 27.007813 57.953125 L 13.210938 57.953125 C 11.917969 57.953125 10.910156 58.929688 10.910156 60.179688 L 10.910156 62.410156 L 29.308594 62.410156 L 29.308594 60.179688 C 29.308594 58.929688 28.300781 57.953125 27.007813 57.953125 "/>
</g>
<g clip-path="url(#clip2)" clip-rule="nonzero">
<path style=" stroke:none;fill-rule:nonzero;fill:#149080;fill-opacity:1;" d="M 34.140625 2.226563 L 22.410156 2.226563 C 22.410156 0.984375 21.394531 0 20.109375 0 C 18.828125 0 17.808594 0.984375 17.808594 2.226563 L 6.074219 2.226563 L 0 27.746094 C 0.792969 27.28125 1.589844 26.75 2.632813 26.75 C 3.992188 26.75 4.875 27.570313 5.554688 28.128906 C 6.238281 28.683594 6.71875 28.976563 7.003906 28.976563 C 7.292969 28.976563 7.769531 28.6875 8.453125 28.140625 C 9.136719 27.59375 10.015625 26.78125 11.367188 26.78125 C 12.71875 26.78125 13.605469 27.585938 14.289063 28.136719 C 14.972656 28.683594 15.449219 28.976563 15.738281 28.976563 C 15.886719 28.976563 16.078125 28.902344 16.316406 28.761719 C 16.558594 28.621094 16.847656 28.410156 17.191406 28.136719 C 17.703125 27.726563 18.328125 27.167969 19.179688 26.917969 C 19.464844 26.832031 19.773438 26.78125 20.109375 26.78125 C 21.457031 26.78125 22.347656 27.585938 23.03125 28.136719 C 23.710938 28.683594 24.1875 28.976563 24.480469 28.976563 C 24.765625 28.972656 25.246094 28.679688 25.925781 28.125 C 26.609375 27.574219 27.496094 26.761719 28.851563 26.761719 C 30.207031 26.761719 31.089844 27.578125 31.769531 28.132813 C 32.113281 28.40625 32.402344 28.621094 32.640625 28.761719 C 32.882813 28.90625 33.074219 28.976563 33.214844 28.976563 C 33.503906 28.976563 33.976563 28.683594 34.660156 28.121094 C 35.339844 27.5625 36.226563 26.738281 37.585938 26.738281 C 38.632813 26.738281 39.425781 27.269531 40.21875 27.734375 "/>
</g>
<path style=" stroke:none;fill-rule:nonzero;fill:#149080;fill-opacity:1;" d="M 23.523438 53.492188 L 16.660156 53.492188 C 16.003906 53.492188 15.507813 53.972656 15.507813 54.609375 C 15.507813 55.242188 16.003906 55.722656 16.660156 55.722656 L 23.558594 55.722656 C 24.214844 55.722656 24.710938 55.242188 24.710938 54.609375 C 24.710938 53.972656 24.214844 53.492188 23.558594 53.492188 "/>
<path style=" stroke:none;fill-rule:nonzero;fill:#149080;fill-opacity:1;" d="M 20.109375 29.011719 C 19.964844 29.011719 19.773438 29.085938 19.53125 29.222656 C 19.375 29.316406 19.160156 29.484375 18.960938 29.632813 L 18.960938 33.363281 L 21.257813 33.363281 L 21.257813 29.632813 C 20.753906 29.253906 20.351563 29.011719 20.109375 29.011719 "/>
</g>
</svg>
