<?xml version="1.0" encoding="UTF-8"?>
<svg xmlns="http://www.w3.org/2000/svg" xmlns:xlink="http://www.w3.org/1999/xlink" width="148.05pt" height="72.71pt" viewBox="0 0 148.05 72.71" version="1.1">
<defs>
<clipPath id="clip1">
  <path d="M 140 44 L 148.050781 44 L 148.050781 47 L 140 47 Z M 140 44 "/>
</clipPath>
<clipPath id="clip2">
  <path d="M 113 66 L 120 66 L 120 72.710938 L 113 72.710938 Z M 113 66 "/>
</clipPath>
</defs>
<g id="surface1">
<path style=" stroke:none;fill-rule:nonzero;fill:rgb(0%,0%,0%);fill-opacity:1;" d="M 87.835938 16.355469 C 87.785156 16.394531 87.742188 16.433594 87.699219 16.476563 C 87.773438 16.164063 87.847656 15.855469 87.929688 15.542969 C 87.964844 15.542969 88 15.542969 88.039063 15.542969 C 87.972656 15.8125 87.902344 16.082031 87.835938 16.355469 M 143.164063 31.398438 C 141.683594 32.453125 140.109375 33.34375 138.507813 34.175781 C 138.546875 32.429688 138.390625 30.710938 137.914063 29.050781 C 137.96875 28.71875 138.019531 28.382813 138.0625 28.046875 C 138.4375 25.042969 138.71875 20.925781 136.058594 18.824219 C 135.726563 18.558594 134.8125 18.789063 134.136719 19.097656 C 133.980469 18.945313 133.8125 18.808594 133.640625 18.683594 C 133.558594 18.441406 133.480469 18.195313 133.410156 17.949219 C 133.378906 17.828125 133.242188 17.761719 133.050781 17.734375 C 133.335938 17.351563 133.3125 16.914063 132.632813 16.640625 C 132.253906 16.488281 131.871094 16.355469 131.488281 16.226563 C 131.421875 16.15625 131.363281 16.132813 131.316406 16.171875 L 131.3125 16.171875 C 130.371094 15.871094 129.417969 15.640625 128.453125 15.46875 C 128.589844 15.136719 128.851563 14.65625 129.003906 14.46875 C 129.136719 14.3125 129.285156 14.167969 129.433594 14.027344 C 129.496094 13.972656 129.558594 13.917969 129.621094 13.863281 C 129.652344 13.835938 129.675781 13.816406 129.691406 13.804688 C 129.710938 13.789063 129.734375 13.769531 129.773438 13.742188 C 130.152344 13.453125 130.621094 12.875 129.996094 12.539063 C 129.425781 12.230469 128.488281 12.398438 127.988281 12.777344 C 127.125 13.433594 126.363281 14.15625 125.894531 15.136719 C 123.886719 14.96875 121.847656 14.984375 119.816406 15.058594 C 119.878906 14.984375 119.929688 14.902344 119.960938 14.808594 C 120.144531 14.226563 119.050781 14.285156 118.769531 14.320313 C 117.210938 14.527344 115.644531 14.730469 114.082031 14.925781 C 115.449219 11.152344 117.164063 6.347656 115.085938 2.660156 C 113.894531 0.554688 111.175781 0.0820313 108.984375 0.0117188 C 106.550781 -0.0703125 104.089844 0.472656 101.949219 1.644531 C 97.1875 4.265625 94.839844 9.355469 93.738281 14.785156 C 93.242188 14.128906 91.4375 14.359375 91.09375 15.253906 C 90.96875 15.570313 90.867188 15.898438 90.769531 16.222656 C 90.605469 16.398438 90.484375 16.609375 90.421875 16.859375 C 90.40625 16.917969 90.398438 16.972656 90.382813 17.027344 C 90.316406 17.03125 90.25 17.03125 90.183594 17.035156 C 90.207031 16.929688 90.226563 16.828125 90.25 16.726563 C 90.398438 16.617188 90.496094 16.492188 90.527344 16.359375 C 91.101563 14.0625 91.683594 11.769531 92.476563 9.539063 C 92.746094 8.78125 89.964844 9.140625 89.671875 9.964844 C 89.25 11.15625 88.890625 12.367188 88.554688 13.585938 C 88.390625 13.664063 88.195313 13.773438 88.128906 13.914063 C 88.109375 13.945313 88.097656 13.984375 88.082031 14.015625 C 87.972656 13.925781 87.808594 13.867188 87.613281 13.839844 L 87.613281 12.878906 C 87.613281 12.449219 84.792969 12.847656 84.792969 13.636719 L 84.792969 15.203125 C 84.625 15.277344 84.464844 15.363281 84.320313 15.472656 C 84.257813 15.527344 84.191406 15.585938 84.128906 15.644531 C 84.058594 15.714844 84.019531 15.796875 84.011719 15.886719 C 84.003906 15.914063 83.996094 15.941406 83.988281 15.964844 C 83.96875 15.988281 83.957031 16.011719 83.933594 16.03125 C 83.808594 16.160156 83.75 16.367188 83.910156 16.5 C 84.097656 16.660156 84.417969 16.664063 84.648438 16.65625 C 84.695313 16.65625 84.742188 16.652344 84.792969 16.648438 L 84.792969 17.113281 C 84.566406 17.113281 84.34375 17.113281 84.117188 17.109375 L 83.707031 17.058594 C 83.683594 16.671875 83.03125 16.605469 82.355469 16.730469 C 82.359375 16.679688 82.363281 16.632813 82.355469 16.582031 C 82.253906 15.988281 82.179688 15.390625 82.125 14.792969 C 82.363281 14.714844 82.597656 14.613281 82.804688 14.480469 C 82.964844 14.378906 83.132813 14.253906 83.132813 14.050781 L 83.132813 13.855469 C 83.132813 13.675781 82.722656 13.652344 82.632813 13.648438 C 82.4375 13.636719 82.238281 13.65625 82.046875 13.6875 C 81.96875 12.382813 81.964844 11.074219 81.964844 9.761719 C 81.964844 8.921875 79.140625 9.449219 79.144531 10.519531 C 79.144531 12.304688 79.148438 14.089844 79.335938 15.863281 C 79.246094 15.859375 79.15625 15.863281 79.0625 15.871094 L 79.0625 14.339844 C 79.0625 13.296875 77.769531 13.121094 76.917969 13.53125 C 77.230469 13.269531 77.40625 12.910156 77.289063 12.492188 C 76.882813 11.078125 76.507813 9.664063 76.3125 8.203125 C 76.125 6.8125 73.296875 7.527344 73.488281 8.960938 C 73.683594 10.421875 74.058594 11.832031 74.464844 13.246094 C 74.699219 14.074219 75.800781 14.136719 76.566406 13.757813 C 76.339844 13.953125 76.195313 14.210938 76.195313 14.519531 L 76.195313 15.148438 C 76.007813 15.050781 75.757813 14.988281 75.425781 14.988281 C 74.367188 14.988281 73.753906 15.871094 74.027344 16.464844 C 73.859375 16.4375 73.699219 16.410156 73.535156 16.382813 C 73.152344 15.132813 72.847656 13.867188 72.820313 12.550781 C 72.800781 11.609375 71.550781 11.503906 70.710938 11.878906 C 70.703125 11.824219 70.691406 11.769531 70.664063 11.710938 C 70.277344 10.90625 70.097656 10.039063 69.882813 9.179688 C 69.550781 7.828125 66.726563 8.578125 67.058594 9.933594 C 67.21875 10.574219 67.359375 11.214844 67.578125 11.832031 C 67.5625 11.839844 67.539063 11.84375 67.523438 11.847656 C 67.222656 11.929688 66.921875 12.050781 66.667969 12.234375 C 65.835938 12.3125 64.839844 12.800781 64.917969 13.441406 C 64.976563 13.921875 65.046875 14.394531 65.125 14.867188 C 64.582031 14.960938 64.035156 15.046875 63.488281 15.128906 C 63.199219 14.34375 62.988281 13.527344 62.871094 12.6875 C 62.738281 11.761719 61.316406 11.832031 60.539063 12.425781 C 59.765625 10.363281 58.742188 8.40625 57.414063 6.664063 C 54.792969 3.226563 50.320313 2.050781 46.171875 2.871094 C 44.273438 3.246094 42.4375 4.054688 41.128906 5.515625 C 39.921875 6.871094 39.777344 8.605469 39.960938 10.320313 C 40.117188 11.816406 40.570313 14.328125 41.542969 16.296875 C 41.195313 16.285156 40.835938 16.339844 40.59375 16.4375 C 40.3125 16.554688 40.035156 16.683594 39.761719 16.824219 C 37.824219 16.855469 35.886719 16.84375 33.960938 16.753906 C 29.78125 16.5625 25.660156 15.894531 21.460938 16.011719 C 20.539063 16.039063 19.929688 16.730469 19.996094 17.273438 C 18.953125 17.777344 18.265625 18.589844 17.855469 19.5625 C 16.121094 18.410156 14.375 17.296875 12.519531 16.351563 C 11.832031 16 9.21875 17.058594 10.234375 17.574219 C 12.074219 18.511719 13.796875 19.648438 15.511719 20.789063 C 16.023438 21.132813 16.832031 20.925781 17.355469 20.722656 C 17.382813 20.707031 17.445313 20.683594 17.519531 20.644531 C 17.214844 22.082031 17.363281 23.710938 17.761719 25.136719 C 17.789063 25.246094 17.851563 25.335938 17.933594 25.40625 C 17.910156 25.746094 17.910156 26.082031 17.925781 26.421875 C 17.925781 26.476563 17.925781 26.53125 17.921875 26.585938 C 17.523438 26.777344 17.210938 27.066406 17.164063 27.425781 C 16.976563 28.835938 16.886719 30.246094 16.859375 31.65625 C 16.585938 31.855469 16.398438 32.125 16.375 32.453125 C 16.140625 35.796875 16.410156 39.105469 16.839844 42.402344 C 17.027344 45.097656 17.53125 47.746094 18.011719 50.402344 C 18.070313 50.816406 18.125 51.234375 18.179688 51.652344 C 17.914063 52.785156 17.78125 54.046875 17.941406 55.132813 C 17.0625 55.304688 16.214844 56 16.710938 56.75 C 17.472656 57.90625 18.351563 58.769531 19.316406 59.398438 C 18.683594 59.296875 17.894531 59.507813 17.445313 59.953125 C 16.625 60.761719 15.730469 61.484375 14.910156 62.292969 C 14.480469 62.71875 14.597656 63.226563 15.199219 63.371094 C 15.851563 63.527344 16.714844 63.3125 17.199219 62.835938 C 18.015625 62.027344 18.914063 61.304688 19.730469 60.496094 C 19.976563 60.253906 20.039063 59.980469 19.933594 59.765625 C 23.144531 61.5 27.167969 61.035156 31.046875 60.707031 C 30.167969 62.296875 29.507813 63.980469 28.878906 65.707031 C 28.617188 66.425781 31.386719 66.078125 31.679688 65.269531 C 32.289063 63.59375 32.917969 61.925781 33.78125 60.375 C 37.523438 60.492188 41.261719 60.496094 44.996094 60.425781 C 45.148438 60.609375 45.414063 60.730469 45.742188 60.761719 C 49.015625 61.074219 52.230469 60.664063 55.429688 60.0625 C 60.21875 59.832031 65.007813 59.539063 69.796875 59.253906 C 77.324219 59.066406 84.851563 58.90625 92.382813 58.933594 C 92.484375 59.042969 92.589844 59.148438 92.699219 59.253906 C 92.96875 59.507813 93.320313 59.597656 93.675781 59.582031 C 93.738281 59.589844 93.804688 59.597656 93.875 59.601563 C 94.589844 59.636719 95.304688 59.6875 96.019531 59.746094 C 96.171875 59.785156 96.359375 59.804688 96.578125 59.792969 L 96.582031 59.792969 C 97.363281 59.859375 98.144531 59.933594 98.925781 60 C 99.097656 60.214844 99.425781 60.34375 99.71875 60.359375 C 103.523438 60.609375 107.332031 60.882813 111.144531 61.0625 C 111.28125 61.292969 111.679688 61.402344 111.964844 61.40625 C 119.027344 61.46875 127.238281 64.210938 133.519531 59.671875 C 134.019531 59.308594 133.792969 58.792969 133.257813 58.6875 C 133.148438 58.664063 133.039063 58.65625 132.933594 58.652344 C 132.9375 58.636719 132.949219 58.621094 132.953125 58.609375 C 134.148438 55.839844 135.128906 52.976563 135.898438 50.054688 C 136.265625 49.859375 136.53125 49.5625 136.546875 49.195313 C 136.59375 48.007813 136.730469 46.789063 136.914063 45.558594 C 137.082031 44.671875 137.230469 43.785156 137.355469 42.898438 C 137.742188 40.726563 138.164063 38.53125 138.375 36.355469 C 140.652344 35.207031 142.914063 34.019531 144.996094 32.535156 C 146.5625 31.421875 144.214844 30.652344 143.164063 31.398438 "/>
<path style=" stroke:none;fill-rule:nonzero;fill:rgb(0%,0%,0%);fill-opacity:1;" d="M 63.261719 12.628906 C 63.386719 12.824219 63.824219 12.847656 64.015625 12.847656 C 64.390625 12.847656 64.773438 12.761719 65.121094 12.621094 C 65.523438 12.453125 66.21875 12.0625 65.890625 11.550781 C 65.527344 10.988281 65.28125 10.359375 64.914063 9.796875 C 64.789063 9.601563 64.351563 9.578125 64.160156 9.578125 C 63.785156 9.578125 63.402344 9.664063 63.054688 9.804688 C 62.652344 9.972656 61.953125 10.363281 62.285156 10.875 C 62.648438 11.4375 62.894531 12.066406 63.261719 12.628906 "/>
<path style=" stroke:none;fill-rule:nonzero;fill:rgb(0%,0%,0%);fill-opacity:1;" d="M 20.683594 10.910156 C 20.898438 11.558594 21.792969 11.558594 22.332031 11.414063 C 22.800781 11.289063 23.71875 10.796875 23.503906 10.152344 C 23.296875 9.53125 23.074219 8.859375 22.613281 8.375 C 22.132813 7.867188 21.289063 7.957031 20.710938 8.222656 C 20.296875 8.414063 19.535156 9.0625 20.015625 9.570313 C 20.398438 9.976563 20.492188 10.34375 20.683594 10.910156 "/>
<path style=" stroke:none;fill-rule:nonzero;fill:rgb(0%,0%,0%);fill-opacity:1;" d="M 30.660156 13.898438 C 31.503906 13.898438 33.734375 12.621094 31.84375 12.621094 C 31.003906 12.621094 28.773438 13.898438 30.660156 13.898438 "/>
<path style=" stroke:none;fill-rule:nonzero;fill:rgb(0%,0%,0%);fill-opacity:1;" d="M 122.5625 12.277344 C 122.90625 12.347656 123.277344 12.308594 123.617188 12.21875 C 123.9375 12.132813 124.316406 11.984375 124.558594 11.742188 C 124.914063 11.386719 125.285156 11.011719 125.519531 10.5625 C 125.625 10.363281 125.691406 10.164063 125.515625 9.976563 C 125.328125 9.777344 125.007813 9.730469 124.75 9.726563 C 124.375 9.714844 123.992188 9.800781 123.644531 9.945313 C 123.394531 10.050781 123.023438 10.238281 122.890625 10.496094 C 122.789063 10.683594 122.671875 10.851563 122.539063 11.011719 C 122.53125 11.019531 122.523438 11.027344 122.515625 11.039063 C 122.503906 11.050781 122.496094 11.0625 122.488281 11.070313 C 122.421875 11.136719 122.355469 11.203125 122.292969 11.269531 C 122.132813 11.425781 121.945313 11.632813 122.011719 11.882813 C 122.078125 12.125 122.347656 12.230469 122.5625 12.277344 "/>
<path style=" stroke:none;fill-rule:nonzero;fill:rgb(0%,0%,0%);fill-opacity:1;" d="M 135.859375 17.695313 C 136.492188 17.632813 137.257813 17.449219 137.753906 17.03125 C 139.074219 15.929688 140.355469 14.785156 141.378906 13.390625 C 141.664063 12.996094 140.328125 13.148438 140.257813 13.160156 C 139.726563 13.261719 138.941406 13.4375 138.597656 13.90625 C 137.648438 15.203125 136.433594 16.257813 135.207031 17.28125 C 134.710938 17.695313 135.648438 17.714844 135.859375 17.695313 "/>
<g clip-path="url(#clip1)" clip-rule="nonzero">
<path style=" stroke:none;fill-rule:nonzero;fill:rgb(0%,0%,0%);fill-opacity:1;" d="M 146.738281 44.773438 L 141.867188 44.773438 C 141.253906 44.773438 140.390625 45.238281 140.3125 45.910156 C 140.222656 46.648438 141.066406 46.832031 141.617188 46.832031 L 146.484375 46.832031 C 147.101563 46.832031 147.960938 46.363281 148.042969 45.695313 C 148.132813 44.957031 147.289063 44.773438 146.738281 44.773438 "/>
</g>
<path style=" stroke:none;fill-rule:nonzero;fill:rgb(0%,0%,0%);fill-opacity:1;" d="M 57.019531 60.785156 C 56.523438 60.867188 55.609375 61.082031 55.382813 61.617188 C 54.84375 62.890625 54.402344 64.1875 54.019531 65.515625 C 53.804688 66.25 56.589844 65.847656 56.816406 65.0625 C 57.199219 63.738281 57.640625 62.4375 58.179688 61.167969 C 58.402344 60.640625 57.210938 60.753906 57.019531 60.785156 "/>
<path style=" stroke:none;fill-rule:nonzero;fill:rgb(0%,0%,0%);fill-opacity:1;" d="M 61.601563 63.378906 C 61.253906 63.375 60.90625 63.441406 60.574219 63.53125 C 60.238281 63.617188 59.902344 63.738281 59.605469 63.914063 C 59.464844 63.996094 59.265625 64.113281 59.265625 64.304688 C 59.265625 64.417969 59.261719 64.535156 59.246094 64.648438 C 59.21875 64.753906 59.183594 64.847656 59.121094 64.933594 C 59.125 64.929688 59.128906 64.925781 59.132813 64.921875 C 59.070313 65.003906 59.023438 65.101563 59.152344 65.175781 C 59.347656 65.289063 59.652344 65.257813 59.863281 65.234375 C 60.238281 65.199219 60.605469 65.109375 60.960938 64.984375 C 61.203125 64.898438 61.574219 64.777344 61.757813 64.578125 C 61.90625 64.414063 61.996094 64.289063 62.039063 64.074219 C 62.074219 63.898438 62.089844 63.726563 62.089844 63.546875 C 62.089844 63.382813 61.667969 63.378906 61.601563 63.378906 "/>
<g clip-path="url(#clip2)" clip-rule="nonzero">
<path style=" stroke:none;fill-rule:nonzero;fill:rgb(0%,0%,0%);fill-opacity:1;" d="M 116.652344 67.054688 C 116.296875 66.367188 113.609375 67.382813 113.828125 67.8125 C 114.671875 69.449219 115.765625 70.933594 116.753906 72.488281 C 117.1875 73.175781 119.792969 72.074219 119.574219 71.730469 C 118.59375 70.175781 117.496094 68.691406 116.652344 67.054688 "/>
</g>
<path style=" stroke:none;fill-rule:nonzero;fill:rgb(0%,0%,0%);fill-opacity:1;" d="M 120.742188 64.714844 C 120.449219 64.128906 119.679688 64.152344 119.121094 64.300781 C 118.769531 64.394531 117.636719 64.898438 117.921875 65.472656 C 118.308594 66.25 118.699219 67.03125 119.089844 67.8125 C 119.382813 68.398438 120.15625 68.371094 120.714844 68.226563 C 121.0625 68.132813 122.199219 67.625 121.914063 67.054688 C 121.523438 66.273438 121.132813 65.496094 120.742188 64.714844 "/>
<path style=" stroke:none;fill-rule:nonzero;fill:rgb(0%,0%,0%);fill-opacity:1;" d="M 5.667969 43.109375 C 4.179688 43.464844 2.660156 43.679688 1.1875 44.082031 C 0.648438 44.230469 -0.15625 44.722656 0.0273438 45.402344 C 0.207031 46.078125 1.15625 46.109375 1.691406 45.960938 C 3.167969 45.558594 4.6875 45.347656 6.171875 44.988281 C 6.714844 44.859375 7.511719 44.335938 7.332031 43.671875 C 7.148438 42.984375 6.207031 42.976563 5.667969 43.109375 "/>
<path style=" stroke:none;fill-rule:nonzero;fill:rgb(100%,100%,100%);fill-opacity:1;" d="M 43.75 40.109375 C 43.667969 37.402344 43.238281 34.710938 43.273438 32 C 43.300781 29.808594 43.664063 27.550781 42.910156 25.445313 C 42.957031 25.207031 43.007813 24.96875 43.050781 24.730469 C 43.246094 23.675781 39.75 24.234375 39.203125 25.199219 C 38.855469 25.480469 38.679688 25.820313 38.824219 26.164063 C 38.859375 26.25 38.894531 26.335938 38.925781 26.425781 C 38.265625 29.660156 37.34375 32.789063 36.28125 35.921875 C 35.875 37.125 35.386719 38.292969 34.972656 39.488281 C 34.382813 38.375 33.789063 37.273438 33.3125 36.082031 C 31.925781 32.617188 30.675781 29.117188 28.988281 25.78125 C 29.179688 24.238281 25.753906 24.398438 25.082031 25.8125 C 24.265625 27.523438 24.371094 29.25 24.640625 31.078125 C 24.941406 33.136719 24.996094 35.164063 25.019531 37.242188 C 25.066406 41.253906 25.378906 45.257813 25.441406 49.269531 C 25.082031 49.667969 24.972656 50.160156 25.347656 50.660156 C 25.511719 50.875 25.714844 51.042969 25.925781 51.210938 C 26.835938 51.941406 29.457031 51.320313 29.453125 49.929688 C 29.4375 45.769531 29.140625 41.617188 29.027344 37.457031 C 29.019531 37.050781 29.011719 36.644531 29.003906 36.234375 C 29.0625 36.382813 29.121094 36.527344 29.175781 36.671875 C 29.824219 38.292969 30.5 39.863281 31.382813 41.371094 C 32.257813 42.859375 32.699219 44.460938 33.203125 46.089844 C 33.011719 46.308594 32.898438 46.554688 32.96875 46.804688 C 32.925781 46.984375 33.039063 47.097656 33.21875 47.167969 C 33.867188 47.71875 35.078125 47.445313 35.753906 47.160156 C 36.042969 47.039063 36.320313 46.898438 36.585938 46.734375 C 36.933594 46.519531 37.476563 46.046875 37.320313 45.5625 C 37.292969 45.46875 37.261719 45.375 37.234375 45.28125 C 37.707031 44 37.949219 42.671875 38.207031 41.316406 C 38.484375 39.875 38.996094 38.511719 39.515625 37.144531 C 39.570313 37.769531 39.621094 38.394531 39.671875 39.019531 C 39.878906 41.59375 39.707031 44.136719 39.679688 46.714844 C 39.671875 47.566406 39.734375 48.363281 39.902344 49.199219 C 39.96875 49.542969 40.273438 51.023438 40.183594 51.101563 C 39.566406 51.671875 39.746094 52.371094 40.574219 52.550781 C 41.496094 52.753906 42.671875 52.445313 43.367188 51.800781 C 44.578125 50.6875 44.007813 48.933594 43.730469 47.523438 C 43.273438 45.160156 43.824219 42.515625 43.75 40.109375 "/>
<path style=" stroke:none;fill-rule:nonzero;fill:rgb(100%,100%,100%);fill-opacity:1;" d="M 52.191406 40.792969 C 52.117188 38.785156 51.421875 36.894531 51.410156 34.867188 C 51.398438 32.539063 51.59375 30.230469 51.253906 27.917969 C 51.148438 27.183594 47.160156 28.019531 47.300781 28.976563 C 47.613281 31.105469 47.5 33.242188 47.460938 35.386719 C 47.425781 37.449219 47.933594 39.320313 48.199219 41.347656 C 48.46875 43.417969 48.113281 45.542969 48.347656 47.617188 C 48.460938 48.589844 49.105469 50.386719 48.441406 51.230469 C 48.015625 51.765625 49.921875 51.574219 50.007813 51.558594 C 50.78125 51.417969 51.816406 51.164063 52.332031 50.511719 C 52.988281 49.675781 52.53125 48.0625 52.386719 47.125 C 52.066406 45.042969 52.269531 42.886719 52.191406 40.792969 "/>
<path style=" stroke:none;fill-rule:nonzero;fill:rgb(100%,100%,100%);fill-opacity:1;" d="M 68.671875 37.441406 C 66.589844 34.632813 62.726563 36.652344 60.03125 35.886719 C 58.640625 35.492188 58.625 33.59375 58.628906 32.460938 C 58.632813 31.019531 58.511719 29.703125 58.351563 28.273438 C 58.230469 27.214844 58.328125 26.132813 59.105469 25.34375 C 59.246094 25.199219 59.96875 25.003906 59.921875 25.003906 C 60.277344 24.941406 60.605469 24.925781 61 24.910156 C 62.558594 24.839844 65.652344 25.144531 65.054688 27.414063 C 64.785156 28.433594 68.683594 27.851563 68.96875 26.773438 C 70.191406 22.132813 61.613281 23.023438 59.195313 23.667969 C 56.960938 24.257813 54.5 25.527344 54.375 28.105469 C 54.3125 29.335938 54.648438 30.503906 54.703125 31.722656 C 54.761719 33.128906 54.503906 34.527344 54.992188 35.878906 C 56.085938 38.886719 60.5625 37.46875 62.84375 37.640625 C 66.722656 37.929688 65.566406 43.160156 65.613281 45.59375 C 65.640625 46.894531 66.804688 49.054688 65.828125 50.144531 C 65.226563 50.8125 63.828125 50.851563 63.011719 50.917969 C 62.191406 50.988281 60.789063 51.234375 60.242188 50.453125 C 59.238281 49.023438 60.335938 46.621094 60.121094 44.980469 C 60 44.046875 56.019531 44.882813 56.167969 46.039063 C 56.515625 48.6875 54.757813 52.238281 58.59375 52.691406 C 61.054688 52.984375 63.832031 52.53125 66.160156 51.757813 C 67.367188 51.355469 68.488281 50.804688 69.433594 49.945313 C 70.476563 49 70.132813 47.578125 69.851563 46.367188 C 69.171875 43.425781 70.59375 40.035156 68.671875 37.441406 "/>
<path style=" stroke:none;fill-rule:nonzero;fill:rgb(100%,100%,100%);fill-opacity:1;" d="M 86.152344 37.25 C 86.03125 33.4375 85.460938 29.667969 85.441406 25.851563 C 85.433594 23.863281 81.441406 24.535156 81.449219 26.195313 C 81.464844 29.839844 81.953125 33.429688 82.136719 37.058594 C 82.140625 37.132813 82.144531 37.207031 82.148438 37.28125 C 80.183594 37.265625 78.214844 37.460938 76.246094 37.53125 C 76.449219 32.855469 75.628906 28.21875 75.808594 23.546875 C 75.828125 22.960938 71.898438 23.457031 71.855469 24.605469 C 71.683594 29.121094 72.449219 33.601563 72.3125 38.121094 C 72.246094 40.273438 72.066406 42.421875 72.050781 44.578125 C 72.042969 45.683594 72.222656 46.785156 72.382813 47.871094 C 72.527344 48.882813 72.871094 50.226563 72.566406 51.222656 C 72.328125 52 76.160156 51.515625 76.460938 50.519531 C 77.011719 48.726563 76.238281 46.445313 76.054688 44.628906 C 75.878906 42.890625 76.011719 41.097656 76.136719 39.332031 C 78.183594 39.203125 80.234375 39.03125 82.273438 39.320313 C 82.363281 40.710938 82.46875 42.101563 82.597656 43.492188 C 82.703125 44.660156 82.777344 45.828125 82.796875 47 C 82.8125 48.027344 82.9375 49.519531 82.574219 50.492188 C 81.792969 52.566406 85.753906 52.398438 86.328125 50.859375 C 87.039063 48.972656 86.835938 46.621094 86.714844 44.640625 C 86.5625 42.171875 86.234375 39.71875 86.152344 37.25 "/>
<path style=" stroke:none;fill-rule:nonzero;fill:rgb(100%,100%,100%);fill-opacity:1;" d="M 103.242188 41.765625 C 102.292969 38.980469 100.847656 36.539063 99.59375 33.898438 C 100.601563 31.929688 101.628906 29.960938 102.550781 27.953125 C 103.390625 26.128906 104.011719 24.101563 105.660156 22.816406 C 106.238281 22.363281 106.214844 21.910156 105.398438 21.855469 C 104.515625 21.792969 103.316406 22.050781 102.605469 22.605469 C 101.105469 23.773438 100.15625 25.191406 99.375 26.910156 C 98.4375 28.980469 97.464844 31.011719 96.4375 33.042969 C 96.363281 33.191406 96.285156 33.339844 96.210938 33.488281 C 95.71875 33.808594 95.417969 34.257813 95.566406 34.765625 C 94.765625 36.34375 93.953125 37.914063 93.042969 39.417969 C 92.742188 33.835938 92.082031 28.257813 91.882813 22.667969 C 91.839844 21.386719 87.875 22.183594 87.929688 23.726563 C 88.175781 30.660156 89.160156 37.574219 89.230469 44.503906 C 89.214844 44.519531 89.195313 44.535156 89.179688 44.554688 C 88.878906 44.863281 88.988281 45.050781 89.234375 45.160156 C 89.234375 46.925781 89.171875 48.695313 89.023438 50.460938 C 88.546875 51.214844 89.488281 51.613281 90.117188 51.613281 L 90.214844 51.613281 C 90.960938 51.613281 92.863281 51.257813 92.957031 50.234375 C 93.148438 48.117188 93.210938 46 93.191406 43.886719 C 94.796875 42.15625 96.105469 40.222656 97.285156 38.199219 C 98.050781 39.695313 98.777344 41.199219 99.289063 42.824219 C 100.160156 45.589844 101.609375 48.132813 102.449219 50.910156 C 103 52.734375 106.945313 51.65625 106.402344 49.851563 C 105.5625 47.074219 104.179688 44.507813 103.242188 41.765625 "/>
<path style=" stroke:none;fill-rule:nonzero;fill:rgb(100%,100%,100%);fill-opacity:1;" d="M 112.207031 36.9375 C 112.105469 35.679688 111.988281 34.421875 111.902344 33.160156 C 111.742188 30.808594 112.019531 27.523438 114.210938 26.097656 C 114.796875 25.714844 115.902344 25.78125 116.589844 25.65625 C 117.566406 25.480469 118.5625 25.261719 119.441406 25.847656 C 120.664063 26.65625 120.363281 29.539063 120.359375 30.757813 C 120.359375 32.785156 120.570313 34.796875 120.675781 36.816406 C 120.117188 36.875 119.550781 36.910156 118.976563 36.894531 C 116.671875 36.839844 114.394531 36.476563 112.207031 36.9375 M 126.960938 37.085938 C 126.746094 36.25 125.574219 36.230469 124.667969 36.3125 C 124.652344 35.972656 124.644531 35.632813 124.632813 35.292969 C 124.503906 32.609375 124.464844 29.867188 124.234375 27.191406 C 124.023438 24.710938 122.636719 23.820313 120.230469 23.914063 C 117.789063 24.007813 114.949219 24.445313 112.675781 25.332031 C 110.046875 26.355469 108.582031 28.289063 108.078125 31.0625 C 107.519531 34.105469 108.316406 37.335938 108.453125 40.394531 C 108.609375 43.929688 108.519531 47.472656 108.515625 51.007813 C 108.515625 51.585938 112.46875 51.039063 112.46875 49.949219 C 112.472656 47.148438 112.511719 44.347656 112.46875 41.546875 C 112.453125 40.71875 112.414063 39.898438 112.363281 39.082031 C 113.746094 38.480469 116.085938 39.09375 117.460938 39.222656 C 118.578125 39.328125 119.648438 39.058594 120.734375 38.929688 C 120.753906 41.261719 120.84375 43.609375 120.9375 45.9375 C 120.988281 47.132813 121.421875 49.5 120.582031 50.488281 C 120.144531 51.011719 122.074219 50.835938 122.148438 50.824219 C 122.953125 50.675781 123.925781 50.417969 124.476563 49.773438 C 125.433594 48.644531 124.9375 45.949219 124.878906 44.601563 C 124.800781 42.671875 124.777344 40.742188 124.734375 38.8125 C 125.902344 38.660156 127.175781 37.945313 126.960938 37.085938 "/>
<path style=" stroke:none;fill-rule:nonzero;fill:rgb(100%,100%,100%);fill-opacity:1;" d="M 48.769531 25.179688 C 49.296875 25.128906 49.824219 24.949219 50.261719 24.648438 C 50.347656 24.578125 50.433594 24.503906 50.519531 24.429688 C 51.042969 24.09375 51.5 23.597656 51.253906 23.058594 C 50.746094 21.941406 50.828125 20.808594 50.835938 19.613281 C 50.839844 18.648438 49.863281 18.355469 49.039063 18.425781 C 48.308594 18.492188 46.847656 19.011719 46.84375 19.960938 C 46.835938 20.964844 46.773438 21.996094 46.953125 22.980469 C 46.90625 23.09375 46.878906 23.222656 46.847656 23.339844 C 46.792969 23.554688 46.863281 23.761719 46.992188 23.933594 C 46.992188 23.980469 46.996094 24.023438 46.996094 24.070313 C 47 24.183594 47.003906 24.296875 47.007813 24.40625 C 47.082031 24.644531 47.226563 24.820313 47.441406 24.941406 C 47.832031 25.179688 48.328125 25.222656 48.769531 25.179688 "/>
</g>
</svg>
