<svg xmlns="http://www.w3.org/2000/svg" width="85.59pt" height="35.03pt" viewBox="0 0 85.59 35.03">
<g id="surface1">
<path style=" stroke:none;fill-rule:nonzero;fill-opacity:1;" d="M 4.179688 26.296875 C 4.167969 22.824219 3.917969 19.359375 3.824219 15.886719 C 3.816406 15.546875 3.808594 15.207031 3.804688 14.867188 C 3.851563 14.988281 3.902344 15.109375 3.949219 15.230469 C 4.488281 16.582031 5.050781 17.894531 5.789063 19.152344 C 6.519531 20.394531 6.886719 21.730469 7.308594 23.089844 C 7.148438 23.273438 7.054688 23.480469 7.113281 23.6875 C 7.078125 23.835938 7.171875 23.929688 7.324219 23.992188 C 7.863281 24.453125 8.875 24.222656 9.4375 23.984375 C 9.679688 23.882813 9.910156 23.761719 10.132813 23.628906 C 10.425781 23.449219 10.878906 23.054688 10.746094 22.652344 C 10.722656 22.574219 10.699219 22.496094 10.675781 22.417969 C 11.074219 21.347656 11.273438 20.238281 11.488281 19.109375 C 11.71875 17.902344 12.148438 16.765625 12.582031 15.625 C 12.621094 16.144531 12.667969 16.667969 12.710938 17.191406 C 12.882813 19.335938 12.738281 21.460938 12.71875 23.613281 C 12.710938 24.324219 12.761719 24.988281 12.902344 25.6875 C 12.960938 25.972656 13.210938 27.207031 13.136719 27.277344 C 12.621094 27.75 12.769531 28.335938 13.460938 28.484375 C 14.234375 28.65625 15.214844 28.398438 15.796875 27.859375 C 16.804688 26.925781 16.328125 25.464844 16.097656 24.289063 C 15.714844 22.316406 16.175781 20.109375 16.117188 18.097656 C 16.046875 15.839844 15.6875 13.597656 15.714844 11.332031 C 15.738281 9.5 16.042969 7.617188 15.414063 5.859375 C 15.453125 5.660156 15.492188 5.460938 15.53125 5.261719 C 15.695313 4.382813 12.777344 4.847656 12.320313 5.652344 C 12.03125 5.886719 11.882813 6.171875 12.003906 6.457031 C 12.035156 6.527344 12.0625 6.605469 12.089844 6.675781 C 11.535156 9.375 10.769531 11.988281 9.882813 14.605469 C 9.542969 15.609375 9.132813 16.582031 8.789063 17.582031 C 8.296875 16.652344 7.800781 15.734375 7.40625 14.738281 C 6.25 11.847656 5.203125 8.921875 3.792969 6.140625 C 3.953125 4.851563 1.097656 4.988281 0.53125 6.167969 C -0.148438 7.59375 -0.0585938 9.035156 0.164063 10.558594 C 0.417969 12.28125 0.460938 13.972656 0.484375 15.707031 C 0.519531 19.054688 0.78125 22.398438 0.835938 25.746094 C 0.535156 26.078125 0.445313 26.488281 0.757813 26.90625 C 0.890625 27.085938 1.0625 27.226563 1.238281 27.367188 C 1.996094 27.976563 4.183594 27.457031 4.179688 26.296875 "/>
<path style=" stroke:none;fill-rule:nonzero;fill-opacity:1;" d="M 22.375 7.925781 C 22.289063 7.3125 18.960938 8.007813 19.078125 8.808594 C 19.335938 10.585938 19.242188 12.371094 19.210938 14.160156 C 19.179688 15.882813 19.605469 17.445313 19.828125 19.132813 C 20.054688 20.863281 19.757813 22.632813 19.953125 24.367188 C 20.042969 25.179688 20.585938 26.679688 20.027344 27.382813 C 19.671875 27.832031 21.265625 27.667969 21.335938 27.660156 C 21.984375 27.539063 22.847656 27.328125 23.277344 26.785156 C 23.828125 26.085938 23.441406 24.742188 23.320313 23.957031 C 23.054688 22.222656 23.222656 20.421875 23.160156 18.671875 C 23.097656 16.996094 22.515625 15.417969 22.507813 13.726563 C 22.5 11.78125 22.660156 9.855469 22.375 7.925781 "/>
<path style=" stroke:none;fill-rule:nonzero;fill-opacity:1;" d="M 25.5 14.570313 C 26.410156 17.082031 30.148438 15.898438 32.050781 16.039063 C 35.289063 16.28125 34.324219 20.648438 34.363281 22.679688 C 34.386719 23.765625 35.359375 25.570313 34.542969 26.480469 C 34.039063 27.035156 32.875 27.066406 32.191406 27.125 C 31.503906 27.183594 30.335938 27.386719 29.878906 26.734375 C 29.042969 25.542969 29.957031 23.535156 29.777344 22.167969 C 29.675781 21.386719 26.351563 22.085938 26.476563 23.050781 C 26.769531 25.261719 25.300781 28.226563 28.5 28.605469 C 30.558594 28.851563 32.875 28.472656 34.820313 27.824219 C 35.828125 27.488281 36.761719 27.03125 37.550781 26.316406 C 38.421875 25.519531 38.136719 24.335938 37.902344 23.328125 C 37.332031 20.871094 38.519531 18.039063 36.914063 15.875 C 35.175781 13.527344 31.953125 15.214844 29.703125 14.578125 C 28.542969 14.246094 28.527344 12.664063 28.53125 11.714844 C 28.535156 10.515625 28.433594 9.414063 28.300781 8.226563 C 28.203125 7.339844 28.28125 6.4375 28.929688 5.777344 C 29.046875 5.65625 29.652344 5.496094 29.609375 5.492188 C 29.910156 5.441406 30.183594 5.429688 30.511719 5.414063 C 31.8125 5.359375 34.394531 5.609375 33.894531 7.507813 C 33.671875 8.359375 36.925781 7.871094 37.160156 6.96875 C 38.183594 3.097656 31.023438 3.839844 29.003906 4.378906 C 27.140625 4.871094 25.085938 5.933594 24.976563 8.082031 C 24.925781 9.109375 25.207031 10.085938 25.253906 11.105469 C 25.304688 12.273438 25.089844 13.441406 25.5 14.570313 "/>
<path style=" stroke:none;fill-rule:nonzero;fill-opacity:1;" d="M 39.953125 16.441406 C 39.902344 18.238281 39.746094 20.03125 39.734375 21.832031 C 39.726563 22.753906 39.878906 23.675781 40.015625 24.582031 C 40.136719 25.421875 40.421875 26.546875 40.164063 27.378906 C 39.96875 28.023438 43.164063 27.621094 43.417969 26.792969 C 43.878906 25.292969 43.230469 23.390625 43.078125 21.875 C 42.929688 20.421875 43.046875 18.929688 43.152344 17.453125 C 44.859375 17.34375 46.570313 17.207031 48.269531 17.441406 C 48.347656 18.605469 48.433594 19.765625 48.542969 20.925781 C 48.628906 21.902344 48.695313 22.875 48.707031 23.855469 C 48.722656 24.710938 48.828125 25.953125 48.523438 26.769531 C 47.871094 28.5 51.175781 28.359375 51.65625 27.074219 C 52.25 25.5 52.082031 23.539063 51.980469 21.882813 C 51.851563 19.824219 51.578125 17.773438 51.511719 15.714844 C 51.410156 12.53125 50.929688 9.386719 50.917969 6.199219 C 50.910156 4.539063 47.578125 5.101563 47.585938 6.488281 C 47.597656 9.527344 48.003906 12.523438 48.15625 15.554688 C 48.164063 15.617188 48.164063 15.675781 48.167969 15.742188 C 46.527344 15.726563 44.886719 15.890625 43.238281 15.949219 C 43.410156 12.046875 42.722656 8.175781 42.875 4.277344 C 42.894531 3.785156 39.609375 4.199219 39.574219 5.160156 C 39.429688 8.929688 40.066406 12.671875 39.953125 16.441406 "/>
<path style=" stroke:none;fill-rule:nonzero;fill-opacity:1;" d="M 54.035156 21.8125 C 53.78125 22.070313 53.875 22.226563 54.078125 22.316406 C 54.082031 23.789063 54.03125 25.265625 53.902344 26.742188 C 53.507813 27.371094 54.292969 27.699219 54.8125 27.699219 L 54.894531 27.699219 C 55.519531 27.699219 57.105469 27.40625 57.183594 26.550781 C 57.347656 24.785156 57.394531 23.015625 57.382813 21.253906 C 58.71875 19.808594 59.816406 18.195313 60.796875 16.503906 C 61.4375 17.753906 62.042969 19.011719 62.472656 20.367188 C 63.199219 22.675781 64.410156 24.796875 65.109375 27.117188 C 65.570313 28.636719 68.863281 27.738281 68.40625 26.230469 C 67.707031 23.914063 66.550781 21.769531 65.769531 19.480469 C 64.976563 17.160156 63.773438 15.121094 62.722656 12.914063 C 63.570313 11.273438 64.421875 9.628906 65.195313 7.953125 C 65.890625 6.429688 66.414063 4.738281 67.789063 3.664063 C 68.269531 3.289063 68.25 2.910156 67.570313 2.863281 C 66.835938 2.808594 65.832031 3.023438 65.238281 3.488281 C 63.988281 4.460938 63.195313 5.648438 62.542969 7.082031 C 61.761719 8.808594 60.945313 10.503906 60.089844 12.199219 C 60.027344 12.324219 59.964844 12.449219 59.902344 12.574219 C 59.488281 12.835938 59.242188 13.214844 59.363281 13.636719 C 58.695313 14.957031 58.015625 16.265625 57.257813 17.523438 C 57.007813 12.863281 56.453125 8.207031 56.289063 3.539063 C 56.253906 2.472656 52.945313 3.136719 52.992188 4.425781 C 53.195313 10.210938 54.015625 15.980469 54.074219 21.765625 C 54.0625 21.78125 54.046875 21.796875 54.035156 21.8125 "/>
<g clip-path="url(#clip1)" clip-rule="nonzero">
<path style=" stroke:none;fill-rule:nonzero;fill-opacity:1;" d="M 78.90625 15.417969 C 76.976563 15.371094 75.078125 15.070313 73.257813 15.453125 C 73.167969 14.402344 73.074219 13.355469 73 12.300781 C 72.867188 10.335938 73.097656 7.597656 74.925781 6.402344 C 75.421875 6.085938 76.34375 6.140625 76.914063 6.035156 C 77.730469 5.886719 78.558594 5.707031 79.296875 6.195313 C 80.3125 6.871094 80.066406 9.277344 80.0625 10.296875 C 80.058594 11.988281 80.238281 13.667969 80.324219 15.355469 C 79.859375 15.402344 79.386719 15.425781 78.90625 15.417969 M 85.570313 15.578125 C 85.390625 14.878906 84.414063 14.863281 83.65625 14.929688 C 83.644531 14.648438 83.636719 14.363281 83.625 14.082031 C 83.519531 11.839844 83.488281 9.550781 83.296875 7.316406 C 83.121094 5.25 81.960938 4.507813 79.949219 4.582031 C 77.914063 4.660156 75.546875 5.027344 73.648438 5.765625 C 71.453125 6.617188 70.226563 8.238281 69.808594 10.550781 C 69.34375 13.089844 70.011719 15.789063 70.121094 18.339844 C 70.25 21.289063 70.175781 24.25 70.175781 27.199219 C 70.175781 27.683594 73.472656 27.226563 73.472656 26.316406 C 73.476563 23.976563 73.511719 21.640625 73.472656 19.300781 C 73.460938 18.613281 73.429688 17.925781 73.386719 17.246094 C 74.542969 16.746094 76.492188 17.253906 77.640625 17.363281 C 78.574219 17.453125 79.46875 17.226563 80.375 17.117188 C 80.390625 19.066406 80.464844 21.023438 80.542969 22.96875 C 80.585938 23.964844 80.945313 25.945313 80.246094 26.769531 C 79.878906 27.203125 81.496094 27.054688 81.554688 27.046875 C 82.222656 26.925781 83.039063 26.710938 83.496094 26.171875 C 84.296875 25.230469 83.882813 22.980469 83.835938 21.855469 C 83.769531 20.242188 83.75 18.632813 83.714844 17.023438 C 84.683594 16.890625 85.75 16.292969 85.570313 15.578125 "/>
</g>
<path style=" stroke:none;fill-rule:nonzero;fill-opacity:1;" d="M 18.699219 4.101563 C 18.652344 4.28125 18.714844 4.457031 18.820313 4.597656 C 18.820313 4.636719 18.820313 4.671875 18.820313 4.710938 C 18.824219 4.804688 18.832031 4.898438 18.835938 4.996094 C 18.894531 5.1875 19.015625 5.335938 19.195313 5.441406 C 19.523438 5.636719 19.933594 5.671875 20.304688 5.636719 C 20.746094 5.597656 21.1875 5.445313 21.550781 5.199219 C 21.621094 5.136719 21.691406 5.078125 21.765625 5.015625 C 22.203125 4.734375 22.585938 4.316406 22.378906 3.871094 C 21.953125 2.9375 22.019531 1.988281 22.027344 0.996094 C 22.035156 0.1875 21.21875 -0.0585938 20.527344 0.00390625 C 19.917969 0.0585938 18.699219 0.496094 18.695313 1.285156 C 18.691406 2.121094 18.636719 2.980469 18.789063 3.804688 C 18.746094 3.898438 18.722656 4.003906 18.699219 4.101563 "/>
<g clip-path="url(#clip2)" clip-rule="nonzero">
<path style=" stroke:none;fill-rule:nonzero;fill-opacity:1;" d="M 80.277344 33.285156 C 78.71875 32.699219 76.996094 32.667969 75.425781 32.496094 C 73.824219 32.328125 72.179688 32.085938 70.542969 31.933594 C 68.90625 31.988281 67.234375 31.960938 65.570313 32.0625 L 60.691406 32.332031 C 54.203125 32.621094 47.691406 32.585938 41.175781 32.4375 C 34.660156 32.316406 28.132813 31.960938 21.546875 31.984375 C 18.257813 31.992188 14.980469 32.085938 11.683594 32.234375 C 10.050781 32.519531 8.445313 32.738281 6.777344 33.148438 C 5.164063 33.546875 3.632813 34.054688 1.984375 34.195313 C 3.609375 34.558594 5.324219 34.488281 6.945313 34.492188 C 8.527344 34.503906 10.191406 34.636719 11.820313 34.726563 C 15.046875 34.554688 18.304688 34.480469 21.550781 34.46875 C 28.039063 34.441406 34.566406 34.796875 41.117188 34.917969 C 47.664063 35.066406 54.230469 35.105469 60.800781 34.808594 L 65.707031 34.539063 C 67.308594 34.46875 68.90625 34.414063 70.535156 34.472656 C 72.164063 34.324219 73.789063 34.140625 75.453125 33.941406 C 77.117188 33.703125 78.671875 33.3125 80.308594 33.429688 L 80.382813 33.4375 L 80.390625 33.382813 C 80.410156 33.203125 80.347656 33.058594 80.347656 32.902344 C 80.3125 33.03125 80.308594 33.167969 80.277344 33.285156 "/>
</g>
</g>
</svg>
