<?xml version="1.0" encoding="UTF-8"?>
<svg xmlns="http://www.w3.org/2000/svg" xmlns:xlink="http://www.w3.org/1999/xlink" width="17.6pt" height="17.6pt" viewBox="0 0 17.6 17.6" version="1.1">
<g id="surface1">
<path style=" stroke:none;fill-rule:nonzero;fill:#63d1bb;fill-opacity:1;" d="M 2.199219 7.699219 C 2.199219 4.660156 4.660156 2.199219 7.699219 2.199219 C 10.734375 2.199219 13.199219 4.660156 13.199219 7.699219 C 13.199219 10.738281 10.734375 13.199219 7.699219 13.199219 C 4.660156 13.199219 2.199219 10.738281 2.199219 7.699219 M 17.269531 15.730469 L 13.855469 12.316406 C 14.820313 11.027344 15.398438 9.433594 15.398438 7.699219 C 15.398438 3.445313 11.953125 0 7.699219 0 C 3.445313 0 0 3.445313 0 7.699219 C 0 11.953125 3.445313 15.398438 7.699219 15.398438 C 9.433594 15.398438 11.023438 14.820313 12.3125 13.855469 L 15.726563 17.269531 C 15.929688 17.472656 16.144531 17.601563 16.5 17.601563 C 17.105469 17.601563 17.597656 17.109375 17.597656 16.5 C 17.597656 16.261719 17.539063 16 17.269531 15.730469 "/>
</g>
</svg>
