<?xml version="1.0" encoding="UTF-8"?>
<svg xmlns="http://www.w3.org/2000/svg" xmlns:xlink="http://www.w3.org/1999/xlink" width="60pt" height="59.62pt" viewBox="0 0 60 59.62" version="1.1">
<g id="surface1">
<path style=" stroke:none;fill-rule:nonzero;fill:#149080;fill-opacity:1;" d="M 29.914063 6.574219 C 34.183594 6.574219 37.640625 5.101563 37.640625 3.285156 C 37.640625 1.472656 34.183594 0 29.914063 0 C 25.644531 0 22.1875 1.472656 22.1875 3.285156 C 22.1875 5.101563 25.644531 6.574219 29.914063 6.574219 M 32.554688 36.476563 L 32.554688 59.621094 L 60 43.683594 L 60 20.539063 Z M 37.703125 22.605469 C 37.703125 24.421875 34.242188 25.890625 29.976563 25.890625 C 25.707031 25.890625 22.246094 24.421875 22.246094 22.605469 L 22.246094 18.542969 L 22.269531 18.542969 C 22.53125 20.257813 25.875 21.621094 29.976563 21.621094 C 34.078125 21.621094 37.417969 20.257813 37.679688 18.542969 L 37.703125 18.542969 Z M 51.34375 12.4375 L 51.34375 14.890625 C 51.34375 16.707031 47.886719 18.179688 43.617188 18.179688 C 39.347656 18.179688 35.890625 16.707031 35.890625 14.890625 L 35.890625 10.832031 L 35.914063 10.832031 C 36.171875 12.546875 39.515625 13.90625 43.617188 13.90625 C 47.886719 13.90625 51.34375 12.429688 51.34375 10.621094 C 51.34375 8.800781 47.886719 7.332031 43.617188 7.332031 C 43.277344 7.332031 42.941406 7.339844 42.613281 7.363281 L 37.640625 4.472656 L 37.640625 7.558594 C 37.640625 9.375 34.183594 10.847656 29.914063 10.847656 C 27.234375 10.847656 24.871094 10.265625 23.484375 9.382813 C 23.289063 9.175781 23.042969 8.980469 22.75 8.796875 C 22.390625 8.414063 22.1875 8 22.1875 7.558594 L 22.1875 4.574219 L 17.378906 7.363281 C 17.03125 7.347656 16.683594 7.332031 16.324219 7.332031 C 12.058594 7.332031 8.597656 8.800781 8.597656 10.621094 C 8.597656 12.429688 12.058594 13.90625 16.324219 13.90625 C 20.425781 13.90625 23.769531 12.546875 24.03125 10.832031 L 24.050781 10.832031 L 24.050781 14.890625 C 24.050781 16.707031 20.597656 18.179688 16.324219 18.179688 C 12.058594 18.179688 8.597656 16.707031 8.597656 14.890625 L 8.597656 12.46875 L 2.644531 15.921875 L 30.175781 31.90625 L 57.527344 16.027344 Z M 0 43.683594 L 27.4375 59.613281 L 27.4375 36.269531 L 0 20.328125 Z M 0 43.683594 "/>
</g>
</svg>
