<?xml version="1.0" encoding="UTF-8" standalone="no"?>
<svg
   xmlns:dc="http://purl.org/dc/elements/1.1/"
   xmlns:cc="http://creativecommons.org/ns#"
   xmlns:rdf="http://www.w3.org/1999/02/22-rdf-syntax-ns#"
   xmlns:svg="http://www.w3.org/2000/svg"
   xmlns="http://www.w3.org/2000/svg"
   viewBox="0 0 290.66666 445.33334"
   height="445.33334"
   width="290.66666"
   xml:space="preserve"
   id="svg2"
   version="1.1"><metadata
     id="metadata8"><rdf:RDF><cc:Work
         rdf:about=""><dc:format>image/svg+xml</dc:format><dc:type
           rdf:resource="http://purl.org/dc/dcmitype/StillImage" /></cc:Work></rdf:RDF></metadata><defs
     id="defs6"><clipPath
       id="clipPath20"
       clipPathUnits="userSpaceOnUse"><path
         id="path18"
         d="m 0,8.25 h 2180 v 3330 H 0 Z" /></clipPath></defs><g
     transform="matrix(1.3333333,0,0,-1.3333333,0,445.33333)"
     id="g10"><g
       transform="scale(0.1)"
       id="g12"><g
         id="g14"><g
           clip-path="url(#clipPath20)"
           id="g16"><path
             id="path22"
             style="fill:#000000;fill-opacity:1;fill-rule:nonzero;stroke:none"
             d="M 1196.17,3338.25 H 940.859 C 413.281,3338.25 0,2908.29 0,2359.38 V 988.949 C 0,440.012 413.281,10.0117 940.859,10.0117 h 255.311 c 539.69,0 978.75,439.1363 978.75,978.9373 V 2359.38 c 0,539.77 -439.06,978.87 -978.75,978.87 z m -118.59,-512.97 h 19.76 c 30.86,0 55.98,-25.12 55.98,-55.98 v -398.67 c 0,-30.9 -25.12,-56.01 -55.98,-56.01 h -19.76 c -30.86,0 -55.98,25.11 -55.98,56.01 v 398.67 c 0,30.86 25.12,55.98 55.98,55.98 z M 2046.91,988.949 c 0,-469.219 -381.64,-850.937 -850.74,-850.937 H 940.859 c -455.82,0 -812.847,373.789 -812.847,850.937 V 2359.38 c 0,477.11 357.027,850.86 812.847,850.86 h 81.801 v -265.31 c -74.691,-23.44 -129.07,-93.32 -129.07,-175.67 v -398.63 c 0,-82.34 54.379,-152.23 129.07,-175.62 v -329.34 c 0,-35.35 28.67,-64.02 64.02,-64.02 35.35,0 63.98,28.67 63.98,64.02 v 328.87 c 75.55,22.93 130.67,93.16 130.67,176.09 v 398.67 c 0,82.89 -55.12,153.17 -130.67,176.1 v 264.84 h 45.51 c 469.1,0 850.74,-381.68 850.74,-850.86 z" /></g></g></g></g></svg>