<?xml version="1.0" encoding="UTF-8" standalone="no"?>
<svg
   xmlns:dc="http://purl.org/dc/elements/1.1/"
   xmlns:cc="http://creativecommons.org/ns#"
   xmlns:rdf="http://www.w3.org/1999/02/22-rdf-syntax-ns#"
   xmlns:svg="http://www.w3.org/2000/svg"
   xmlns="http://www.w3.org/2000/svg"
   viewBox="0 0 33.333332 34.666668"
   height="34.666668"
   width="33.333332"
   xml:space="preserve"
   id="svg2"
   version="1.1"><metadata
     id="metadata8"><rdf:RDF><cc:Work
         rdf:about=""><dc:format>image/svg+xml</dc:format><dc:type
           rdf:resource="http://purl.org/dc/dcmitype/StillImage" /></cc:Work></rdf:RDF></metadata><defs
     id="defs6"><clipPath
       id="clipPath20"
       clipPathUnits="userSpaceOnUse"><path
         id="path18"
         d="M 0,0.378906 H 250 V 250.37891 H 0 Z" /></clipPath></defs><g
     transform="matrix(1.3333333,0,0,-1.3333333,0,34.666667)"
     id="g10"><g
       transform="scale(0.1)"
       id="g12"><g
         id="g14"><g
           clip-path="url(#clipPath20)"
           id="g16"><path
             id="path22"
             style="fill:#fff;fill-opacity:1;fill-rule:nonzero;stroke:none"
             d="m 159.84,134.91 -49.918,36.25 c -1.832,1.328 -4.262,1.559 -6.25,0.512 -2.031,-1.024 -3.281,-3.094 -3.281,-5.363 V 93.7695 c 0,-2.2578 1.25,-4.3281 3.281,-5.3906 0.859,-0.4297 1.797,-0.6172 2.738,-0.6172 1.211,0 2.461,0.3867 3.512,1.168 L 159.84,125.18 c 1.609,1.172 2.5,2.929 2.5,4.84 0,1.96 -0.93,3.718 -2.5,4.89 z" /><path
             id="path24"
             style="fill:#fff;fill-opacity:1;fill-rule:nonzero;stroke:none"
             d="M 120.199,250.379 C 53.7891,250.379 0,196.59 0,130.18 0,63.7695 53.7891,9.98828 120.199,9.98828 c 66.403,0 120.192,53.82032 120.192,120.19172 0.039,66.41 -53.789,120.199 -120.192,120.199 z m 0,-220.3204 c -55.2771,0 -100.1209,44.8125 -100.1209,100.1214 0,55.269 44.8438,100.121 100.1209,100.121 55.313,0 100.11,-44.852 100.11,-100.121 0,-55.3089 -44.797,-100.1214 -100.11,-100.1214 z" /></g></g></g></g></svg>